<svg version="1.1" viewBox="0.0 0.0 320.1496062992126 100.0" fill="none" stroke="none" stroke-linecap="square" stroke-miterlimit="10" xmlns:xlink="http://www.w3.org/1999/xlink" xmlns="http://www.w3.org/2000/svg"><clipPath id="p.0"><path d="m0 0l320.1496 0l0 100.0l-320.1496 0l0 -100.0z" clip-rule="nonzero"/></clipPath><g clip-path="url(#p.0)"><path fill="#ffffff" d="m0 0l320.1496 0l0 100.0l-320.1496 0z" fill-rule="evenodd"/><path fill="#d9d9d9" d="m18.467192 36.333332l41.07087 0l0 30.204723l-41.07087 0z" fill-rule="evenodd"/><path stroke="#000000" stroke-width="1.0" stroke-linejoin="round" stroke-linecap="butt" d="m18.467192 36.333332l41.07087 0l0 30.204723l-41.07087 0z" fill-rule="evenodd"/><path fill="#ff0000" d="m41.158516 58.355694l-2.5625 0l0 -9.640625q-1.40625 1.3125 -3.3125 1.9375l0 -2.328125q1.015625 -0.328125 2.1875 -1.234375q1.171875 -0.921875 1.609375 -2.140625l2.078125 0l0 13.40625z" fill-rule="nonzero"/><path fill="#ffffff" d="m59.53806 36.333332l41.070866 0l0 30.204723l-41.070866 0z" fill-rule="evenodd"/><path stroke="#000000" stroke-width="1.0" stroke-linejoin="round" stroke-linecap="butt" d="m59.53806 36.333332l41.070866 0l0 30.204723l-41.070866 0z" fill-rule="evenodd"/><path fill="#000000" d="m80.916885 58.355694l0 -3.203125l-5.796875 0l0 -1.5l6.09375 -8.65625l1.34375 0l0 8.65625l1.796875 0l0 1.5l-1.796875 0l0 3.203125l-1.640625 0zm0 -4.703125l0 -6.015625l-4.1875 6.015625l4.1875 0z" fill-rule="nonzero"/><path fill="#ffffff" d="m100.608925 36.333332l41.07087 0l0 30.204723l-41.07087 0z" fill-rule="evenodd"/><path stroke="#000000" stroke-width="1.0" stroke-linejoin="round" stroke-linecap="butt" d="m100.608925 36.333332l41.07087 0l0 30.204723l-41.07087 0z" fill-rule="evenodd"/><path fill="#000000" d="m116.84712 46.74632l0 -1.578125l8.640625 0l0 1.28125q-1.28125 1.359375 -2.53125 3.609375q-1.25 2.25 -1.9375 4.625q-0.484375 1.671875 -0.625 3.671875l-1.6875 0q0.03125 -1.578125 0.625 -3.8125q0.59375 -2.234375 1.6875 -4.296875q1.109375 -2.078125 2.359375 -3.5l-6.53125 0z" fill-rule="nonzero"/><path fill="#000000" fill-opacity="0.0" d="m141.6811 36.333332l38.929123 0l0 30.204723l-38.929123 0z" fill-rule="evenodd"/><path stroke="#000000" stroke-width="1.0" stroke-linejoin="round" stroke-linecap="butt" d="m141.6811 36.333332l38.929123 0l0 30.204723l-38.929123 0z" fill-rule="evenodd"/><path fill="#000000" d="m165.34843 56.77757l0 1.578125l-8.828125 0q-0.015625 -0.59375 0.1875 -1.140625q0.34375 -0.90625 1.078125 -1.78125q0.75 -0.875 2.15625 -2.015625q2.171875 -1.78125 2.9375 -2.828125q0.765625 -1.046875 0.765625 -1.96875q0 -0.984375 -0.703125 -1.640625q-0.6875 -0.671875 -1.8125 -0.671875q-1.1875 0 -1.90625 0.71875q-0.703125 0.703125 -0.703125 1.953125l-1.6875 -0.171875q0.171875 -1.890625 1.296875 -2.875q1.140625 -0.984375 3.03125 -0.984375q1.921875 0 3.046875 1.0625q1.125 1.0625 1.125 2.640625q0 0.796875 -0.328125 1.578125q-0.328125 0.78125 -1.09375 1.640625q-0.75 0.84375 -2.53125 2.34375q-1.46875 1.234375 -1.890625 1.6875q-0.421875 0.4375 -0.6875 0.875l6.546875 0z" fill-rule="nonzero"/><path fill="#ffffff" d="m180.60892 36.333332l41.070877 0l0 30.204723l-41.070877 0z" fill-rule="evenodd"/><path stroke="#000000" stroke-width="1.0" stroke-linejoin="round" stroke-linecap="butt" d="m180.60892 36.333332l41.070877 0l0 30.204723l-41.070877 0z" fill-rule="evenodd"/><path fill="#000000" d="m196.73775 54.855694l1.71875 -0.140625q0.1875 1.25 0.875 1.890625q0.703125 0.625 1.6875 0.625q1.1875 0 2.0 -0.890625q0.828125 -0.890625 0.828125 -2.359375q0 -1.40625 -0.796875 -2.21875q-0.78125 -0.8125 -2.0625 -0.8125q-0.78125 0 -1.421875 0.359375q-0.640625 0.359375 -1.0 0.9375l-1.546875 -0.203125l1.296875 -6.859375l6.640625 0l0 1.5625l-5.328125 0l-0.71875 3.59375q1.203125 -0.84375 2.515625 -0.84375q1.75 0 2.953125 1.21875q1.203125 1.203125 1.203125 3.109375q0 1.8125 -1.046875 3.140625q-1.296875 1.625 -3.515625 1.625q-1.8125 0 -2.96875 -1.015625q-1.15625 -1.03125 -1.3125 -2.71875z" fill-rule="nonzero"/><path fill="#ffffff" d="m220.60892 36.333332l41.07086 0l0 30.204723l-41.07086 0z" fill-rule="evenodd"/><path stroke="#000000" stroke-width="1.0" stroke-linejoin="round" stroke-linecap="butt" d="m220.60892 36.333332l41.07086 0l0 30.204723l-41.07086 0z" fill-rule="evenodd"/><path fill="#000000" d="m236.73775 54.824444l1.640625 -0.21875q0.28125 1.40625 0.953125 2.015625q0.6875 0.609375 1.65625 0.609375q1.15625 0 1.953125 -0.796875q0.796875 -0.796875 0.796875 -1.984375q0 -1.125 -0.734375 -1.859375q-0.734375 -0.734375 -1.875 -0.734375q-0.46875 0 -1.15625 0.171875l0.1875 -1.4375q0.15625 0.015625 0.265625 0.015625q1.046875 0 1.875 -0.546875q0.84375 -0.546875 0.84375 -1.671875q0 -0.90625 -0.609375 -1.5q-0.609375 -0.59375 -1.578125 -0.59375q-0.953125 0 -1.59375 0.609375q-0.640625 0.59375 -0.8125 1.796875l-1.640625 -0.296875q0.296875 -1.640625 1.359375 -2.546875q1.0625 -0.90625 2.65625 -0.90625q1.09375 0 2.0 0.46875q0.921875 0.46875 1.40625 1.28125q0.5 0.8125 0.5 1.71875q0 0.859375 -0.46875 1.578125q-0.46875 0.703125 -1.375 1.125q1.1875 0.28125 1.84375 1.140625q0.65625 0.859375 0.65625 2.15625q0 1.734375 -1.28125 2.953125q-1.265625 1.21875 -3.21875 1.21875q-1.765625 0 -2.921875 -1.046875q-1.15625 -1.046875 -1.328125 -2.71875z" fill-rule="nonzero"/><path fill="#d9d9d9" d="m260.60892 36.333332l41.07086 0l0 30.204723l-41.07086 0z" fill-rule="evenodd"/><path stroke="#000000" stroke-width="1.0" stroke-linejoin="round" stroke-linecap="butt" d="m260.60892 36.333332l41.07086 0l0 30.204723l-41.07086 0z" fill-rule="evenodd"/><path fill="#0000ff" d="m276.80026 55.261944l2.484375 -0.265625q0.09375 0.75 0.46875 1.125q0.390625 0.359375 1.015625 0.359375q0.796875 0 1.34375 -0.71875q0.5625 -0.734375 0.71875 -3.03125q-0.96875 1.109375 -2.421875 1.109375q-1.578125 0 -2.71875 -1.203125q-1.140625 -1.21875 -1.140625 -3.171875q0 -2.03125 1.203125 -3.265625q1.203125 -1.25 3.078125 -1.25q2.03125 0 3.328125 1.578125q1.3125 1.5625 1.3125 5.15625q0 3.671875 -1.359375 5.296875q-1.359375 1.609375 -3.53125 1.609375q-1.578125 0 -2.546875 -0.828125q-0.953125 -0.84375 -1.234375 -2.5zm5.796875 -5.59375q0 -1.234375 -0.578125 -1.90625q-0.5625 -0.6875 -1.3125 -0.6875q-0.703125 0 -1.171875 0.5625q-0.46875 0.546875 -0.46875 1.828125q0 1.296875 0.5 1.90625q0.515625 0.59375 1.28125 0.59375q0.734375 0 1.234375 -0.578125q0.515625 -0.578125 0.515625 -1.71875z" fill-rule="nonzero"/></g></svg>