<svg version="1.1" viewBox="0.0 0.0 321.87401574803147 164.6010498687664" fill="none" stroke="none" stroke-linecap="square" stroke-miterlimit="10" xmlns:xlink="http://www.w3.org/1999/xlink" xmlns="http://www.w3.org/2000/svg"><clipPath id="p.0"><path d="m0 0l321.87402 0l0 164.60104l-321.87402 0l0 -164.60104z" clip-rule="nonzero"/></clipPath><g clip-path="url(#p.0)"><path fill="#ffffff" d="m0 0l321.87402 0l0 164.60104l-321.87402 0z" fill-rule="evenodd"/><path fill="#000000" fill-opacity="0.0" d="m21.736221 19.874016l41.070866 0l0 30.204723l-41.070866 0z" fill-rule="evenodd"/><path stroke="#000000" stroke-width="1.0" stroke-linejoin="round" stroke-linecap="butt" d="m21.736221 19.874016l41.070866 0l0 30.204723l-41.070866 0z" fill-rule="evenodd"/><path fill="#000000" d="m37.865044 38.396374l1.71875 -0.140625q0.1875 1.25 0.875 1.890625q0.703125 0.625 1.6875 0.625q1.1875 0 2.0 -0.890625q0.828125 -0.890625 0.828125 -2.359375q0 -1.40625 -0.796875 -2.21875q-0.78125 -0.8125 -2.0625 -0.8125q-0.78125 0 -1.421875 0.359375q-0.640625 0.359375 -1.0 0.9375l-1.546875 -0.203125l1.296875 -6.859373l6.640625 0l0 1.5625l-5.328125 0l-0.71875 3.593748q1.203125 -0.84375 2.515625 -0.84375q1.75 0 2.953125 1.21875q1.203125 1.203125 1.203125 3.109375q0 1.8125 -1.046875 3.140625q-1.296875 1.625 -3.515625 1.625q-1.8125 0 -2.96875 -1.015625q-1.15625 -1.03125 -1.3125 -2.71875z" fill-rule="nonzero"/><path fill="#ffffff" d="m62.807087 19.874016l41.070866 0l0 30.204723l-41.070866 0z" fill-rule="evenodd"/><path stroke="#000000" stroke-width="1.0" stroke-linejoin="round" stroke-linecap="butt" d="m62.807087 19.874016l41.070866 0l0 30.204723l-41.070866 0z" fill-rule="evenodd"/><path fill="#000000" d="m84.18591 41.896374l0 -3.203125l-5.796875 0l0 -1.5l6.09375 -8.656248l1.34375 0l0 8.656248l1.796875 0l0 1.5l-1.796875 0l0 3.203125l-1.640625 0zm0 -4.703125l0 -6.015623l-4.1875 6.015623l4.1875 0z" fill-rule="nonzero"/><path fill="#ffffff" d="m103.87795 19.874016l41.07087 0l0 30.204723l-41.07087 0z" fill-rule="evenodd"/><path stroke="#000000" stroke-width="1.0" stroke-linejoin="round" stroke-linecap="butt" d="m103.87795 19.874016l41.07087 0l0 30.204723l-41.07087 0z" fill-rule="evenodd"/><path fill="#000000" d="m120.11615 30.287l0 -1.578125l8.640625 0l0 1.28125q-1.28125 1.359375 -2.53125 3.609373q-1.25 2.25 -1.9375 4.625q-0.484375 1.671875 -0.625 3.671875l-1.6875 0q0.03125 -1.578125 0.625 -3.8125q0.59375 -2.234375 1.6875 -4.296875q1.109375 -2.078123 2.359375 -3.499998l-6.53125 0z" fill-rule="nonzero"/><path fill="#ffffff" d="m143.87796 19.874016l41.07086 0l0 30.204723l-41.07086 0z" fill-rule="evenodd"/><path stroke="#000000" stroke-width="1.0" stroke-linejoin="round" stroke-linecap="butt" d="m143.87796 19.874016l41.07086 0l0 30.204723l-41.07086 0z" fill-rule="evenodd"/><path fill="#000000" d="m168.61615 40.31825l0 1.578125l-8.828125 0q-0.015625 -0.59375 0.1875 -1.140625q0.34375 -0.90625 1.078125 -1.78125q0.75 -0.875 2.15625 -2.015625q2.171875 -1.78125 2.9375 -2.828125q0.765625 -1.046875 0.765625 -1.96875q0 -0.9843731 -0.703125 -1.6406231q-0.6875 -0.671875 -1.8125 -0.671875q-1.1875 0 -1.90625 0.71875q-0.703125 0.703125 -0.703125 1.9531231l-1.6875 -0.171875q0.171875 -1.8906231 1.296875 -2.874998q1.140625 -0.984375 3.03125 -0.984375q1.921875 0 3.046875 1.0625q1.125 1.0625 1.125 2.640623q0 0.796875 -0.328125 1.578125q-0.328125 0.78125 -1.09375 1.640625q-0.75 0.84375 -2.53125 2.34375q-1.46875 1.234375 -1.890625 1.6875q-0.421875 0.4375 -0.6875 0.875l6.546875 0z" fill-rule="nonzero"/><path fill="#ffffff" d="m183.87796 19.874016l41.07086 0l0 30.204723l-41.07086 0z" fill-rule="evenodd"/><path stroke="#000000" stroke-width="1.0" stroke-linejoin="round" stroke-linecap="butt" d="m183.87796 19.874016l41.07086 0l0 30.204723l-41.07086 0z" fill-rule="evenodd"/><path fill="#000000" d="m206.17865 41.896374l-1.640625 0l0 -10.453123q-0.59375 0.5624981 -1.5625 1.1406231q-0.953125 0.5625 -1.71875 0.84375l0 -1.5937481q1.375 -0.640625 2.40625 -1.5625q1.03125 -0.921875 1.453125 -1.78125l1.0625 0l0 13.406248z" fill-rule="nonzero"/><path fill="#fff2cc" d="m223.87796 19.874016l41.07086 0l0 30.204723l-41.07086 0z" fill-rule="evenodd"/><path stroke="#000000" stroke-width="1.0" stroke-linejoin="round" stroke-linecap="butt" d="m223.87796 19.874016l41.07086 0l0 30.204723l-41.07086 0z" fill-rule="evenodd"/><path fill="#000000" d="m240.24115 38.802624l1.578125 -0.140625q0.203125 1.109375 0.765625 1.609375q0.5625 0.5 1.453125 0.5q0.75 0 1.3125 -0.34375q0.578125 -0.34375 0.9375 -0.921875q0.375 -0.578125 0.609375 -1.5625q0.25 -0.984375 0.25 -2.0q0 -0.109375 0 -0.328125q-0.5 0.78125 -1.359375 1.265625q-0.84375 0.484375 -1.828125 0.484375q-1.671875 0 -2.8125 -1.203125q-1.140625 -1.203125 -1.140625 -3.171875q0 -2.031248 1.1875 -3.265623q1.203125 -1.234375 3.0 -1.234375q1.3125 0 2.390625 0.703125q1.078125 0.703125 1.640625 2.0q0.5625 1.2968731 0.5625 3.749998q0 2.5625 -0.5625 4.078125q-0.5625 1.515625 -1.65625 2.3125q-1.09375 0.796875 -2.578125 0.796875q-1.5625 0 -2.5625 -0.875q-0.984375 -0.875 -1.1875 -2.453125zm6.71875 -5.890625q0 -1.4062481 -0.75 -2.234373q-0.75 -0.828125 -1.8125 -0.828125q-1.09375 0 -1.90625 0.890625q-0.8125 0.890625 -0.8125 2.312498q0 1.28125 0.765625 2.078125q0.78125 0.796875 1.90625 0.796875q1.140625 0 1.875 -0.796875q0.734375 -0.796875 0.734375 -2.21875z" fill-rule="nonzero"/><path fill="#fff2cc" d="m263.87796 19.874016l41.07086 0l0 30.204723l-41.07086 0z" fill-rule="evenodd"/><path stroke="#000000" stroke-width="1.0" stroke-linejoin="round" stroke-linecap="butt" d="m263.87796 19.874016l41.07086 0l0 30.204723l-41.07086 0z" fill-rule="evenodd"/><path fill="#000000" d="m280.00677 38.365124l1.640625 -0.21875q0.28125 1.40625 0.953125 2.015625q0.6875 0.609375 1.65625 0.609375q1.15625 0 1.953125 -0.796875q0.796875 -0.796875 0.796875 -1.984375q0 -1.125 -0.734375 -1.859375q-0.734375 -0.734375 -1.875 -0.734375q-0.46875 0 -1.15625 0.171875l0.1875 -1.4375q0.15625 0.015625 0.265625 0.015625q1.046875 0 1.875 -0.546875q0.84375 -0.546875 0.84375 -1.6718731q0 -0.90625 -0.609375 -1.5q-0.609375 -0.59375 -1.578125 -0.59375q-0.953125 0 -1.59375 0.609375q-0.640625 0.59375 -0.8125 1.7968731l-1.640625 -0.2968731q0.296875 -1.640625 1.359375 -2.546875q1.0625 -0.90625 2.65625 -0.90625q1.09375 0 2.0 0.46875q0.921875 0.46875 1.40625 1.28125q0.5 0.8125 0.5 1.71875q0 0.8593731 -0.46875 1.5781231q-0.46875 0.703125 -1.375 1.125q1.1875 0.28125 1.84375 1.140625q0.65625 0.859375 0.65625 2.15625q0 1.734375 -1.28125 2.953125q-1.265625 1.21875 -3.21875 1.21875q-1.765625 0 -2.921875 -1.046875q-1.15625 -1.046875 -1.328125 -2.71875z" fill-rule="nonzero"/><path fill="#000000" fill-opacity="0.0" d="m21.736221 91.874016l41.070866 0l0 30.204727l-41.070866 0z" fill-rule="evenodd"/><path stroke="#000000" stroke-width="1.0" stroke-linejoin="round" stroke-linecap="butt" d="m21.736221 91.874016l41.070866 0l0 30.204727l-41.070866 0z" fill-rule="evenodd"/><path fill="#000000" d="m37.865044 110.39638l1.71875 -0.140625q0.1875 1.25 0.875 1.890625q0.703125 0.625 1.6875 0.625q1.1875 0 2.0 -0.890625q0.828125 -0.890625 0.828125 -2.359375q0 -1.40625 -0.796875 -2.21875q-0.78125 -0.8125 -2.0625 -0.8125q-0.78125 0 -1.421875 0.359375q-0.640625 0.359375 -1.0 0.9375l-1.546875 -0.203125l1.296875 -6.859375l6.640625 0l0 1.5625l-5.328125 0l-0.71875 3.59375q1.203125 -0.84375 2.515625 -0.84375q1.75 0 2.953125 1.21875q1.203125 1.203125 1.203125 3.109375q0 1.8125 -1.046875 3.140625q-1.296875 1.625 -3.515625 1.625q-1.8125 0 -2.96875 -1.015625q-1.15625 -1.03125 -1.3125 -2.71875z" fill-rule="nonzero"/><path fill="#000000" fill-opacity="0.0" d="m62.807087 91.874016l41.070866 0l0 30.204727l-41.070866 0z" fill-rule="evenodd"/><path stroke="#000000" stroke-width="1.0" stroke-linejoin="round" stroke-linecap="butt" d="m62.807087 91.874016l41.070866 0l0 30.204727l-41.070866 0z" fill-rule="evenodd"/><path fill="#000000" d="m84.18591 113.89638l0 -3.203125l-5.796875 0l0 -1.5l6.09375 -8.65625l1.34375 0l0 8.65625l1.796875 0l0 1.5l-1.796875 0l0 3.203125l-1.640625 0zm0 -4.703125l0 -6.015625l-4.1875 6.015625l4.1875 0z" fill-rule="nonzero"/><path fill="#000000" fill-opacity="0.0" d="m103.87795 91.874016l41.07087 0l0 30.204727l-41.07087 0z" fill-rule="evenodd"/><path stroke="#000000" stroke-width="1.0" stroke-linejoin="round" stroke-linecap="butt" d="m103.87795 91.874016l41.07087 0l0 30.204727l-41.07087 0z" fill-rule="evenodd"/><path fill="#000000" d="m120.11615 102.287l0 -1.578125l8.640625 0l0 1.28125q-1.28125 1.359375 -2.53125 3.609375q-1.25 2.25 -1.9375 4.625q-0.484375 1.671875 -0.625 3.671875l-1.6875 0q0.03125 -1.578125 0.625 -3.8125q0.59375 -2.234375 1.6875 -4.296875q1.109375 -2.078125 2.359375 -3.5l-6.53125 0z" fill-rule="nonzero"/><path fill="#ffffff" d="m143.87796 91.874016l41.07086 0l0 30.204727l-41.07086 0z" fill-rule="evenodd"/><path stroke="#000000" stroke-width="1.0" stroke-linejoin="round" stroke-linecap="butt" d="m143.87796 91.874016l41.07086 0l0 30.204727l-41.07086 0z" fill-rule="evenodd"/><path fill="#000000" d="m168.61615 112.31825l0 1.578125l-8.828125 0q-0.015625 -0.59375 0.1875 -1.140625q0.34375 -0.90625 1.078125 -1.78125q0.75 -0.875 2.15625 -2.015625q2.171875 -1.78125 2.9375 -2.828125q0.765625 -1.046875 0.765625 -1.96875q0 -0.984375 -0.703125 -1.640625q-0.6875 -0.671875 -1.8125 -0.671875q-1.1875 0 -1.90625 0.71875q-0.703125 0.703125 -0.703125 1.953125l-1.6875 -0.171875q0.171875 -1.890625 1.296875 -2.875q1.140625 -0.984375 3.03125 -0.984375q1.921875 0 3.046875 1.0625q1.125 1.0625 1.125 2.640625q0 0.796875 -0.328125 1.578125q-0.328125 0.78125 -1.09375 1.640625q-0.75 0.84375 -2.53125 2.34375q-1.46875 1.234375 -1.890625 1.6875q-0.421875 0.4375 -0.6875 0.875l6.546875 0z" fill-rule="nonzero"/><path fill="#ffffff" d="m183.87796 91.874016l41.07086 0l0 30.204727l-41.07086 0z" fill-rule="evenodd"/><path stroke="#000000" stroke-width="1.0" stroke-linejoin="round" stroke-linecap="butt" d="m183.87796 91.874016l41.07086 0l0 30.204727l-41.07086 0z" fill-rule="evenodd"/><path fill="#000000" d="m206.17865 113.89638l-1.640625 0l0 -10.453125q-0.59375 0.5625 -1.5625 1.140625q-0.953125 0.5625 -1.71875 0.84375l0 -1.59375q1.375 -0.640625 2.40625 -1.5625q1.03125 -0.921875 1.453125 -1.78125l1.0625 0l0 13.40625z" fill-rule="nonzero"/><path fill="#ffffff" d="m223.87796 91.874016l41.07086 0l0 30.204727l-41.07086 0z" fill-rule="evenodd"/><path stroke="#000000" stroke-width="1.0" stroke-linejoin="round" stroke-linecap="butt" d="m223.87796 91.874016l41.07086 0l0 30.204727l-41.07086 0z" fill-rule="evenodd"/><path fill="#000000" d="m240.24115 110.80263l1.578125 -0.140625q0.203125 1.109375 0.765625 1.609375q0.5625 0.5 1.453125 0.5q0.75 0 1.3125 -0.34375q0.578125 -0.34375 0.9375 -0.921875q0.375 -0.578125 0.609375 -1.5625q0.25 -0.984375 0.25 -2.0q0 -0.109375 0 -0.328125q-0.5 0.78125 -1.359375 1.265625q-0.84375 0.484375 -1.828125 0.484375q-1.671875 0 -2.8125 -1.203125q-1.140625 -1.203125 -1.140625 -3.171875q0 -2.03125 1.1875 -3.265625q1.203125 -1.234375 3.0 -1.234375q1.3125 0 2.390625 0.703125q1.078125 0.703125 1.640625 2.0q0.5625 1.296875 0.5625 3.75q0 2.5625 -0.5625 4.078125q-0.5625 1.515625 -1.65625 2.3125q-1.09375 0.796875 -2.578125 0.796875q-1.5625 0 -2.5625 -0.875q-0.984375 -0.875 -1.1875 -2.453125zm6.71875 -5.890625q0 -1.40625 -0.75 -2.234375q-0.75 -0.828125 -1.8125 -0.828125q-1.09375 0 -1.90625 0.890625q-0.8125 0.890625 -0.8125 2.3125q0 1.28125 0.765625 2.078125q0.78125 0.796875 1.90625 0.796875q1.140625 0 1.875 -0.796875q0.734375 -0.796875 0.734375 -2.21875z" fill-rule="nonzero"/><path fill="#ffffff" d="m263.87796 91.874016l41.07086 0l0 30.204727l-41.07086 0z" fill-rule="evenodd"/><path stroke="#000000" stroke-width="1.0" stroke-linejoin="round" stroke-linecap="butt" d="m263.87796 91.874016l41.07086 0l0 30.204727l-41.07086 0z" fill-rule="evenodd"/><path fill="#000000" d="m280.00677 110.36513l1.640625 -0.21875q0.28125 1.40625 0.953125 2.015625q0.6875 0.609375 1.65625 0.609375q1.15625 0 1.953125 -0.796875q0.796875 -0.796875 0.796875 -1.984375q0 -1.125 -0.734375 -1.859375q-0.734375 -0.734375 -1.875 -0.734375q-0.46875 0 -1.15625 0.171875l0.1875 -1.4375q0.15625 0.015625 0.265625 0.015625q1.046875 0 1.875 -0.546875q0.84375 -0.546875 0.84375 -1.671875q0 -0.90625 -0.609375 -1.5q-0.609375 -0.59375 -1.578125 -0.59375q-0.953125 0 -1.59375 0.609375q-0.640625 0.59375 -0.8125 1.796875l-1.640625 -0.296875q0.296875 -1.640625 1.359375 -2.546875q1.0625 -0.90625 2.65625 -0.90625q1.09375 0 2.0 0.46875q0.921875 0.46875 1.40625 1.28125q0.5 0.8125 0.5 1.71875q0 0.859375 -0.46875 1.578125q-0.46875 0.703125 -1.375 1.125q1.1875 0.28125 1.84375 1.140625q0.65625 0.859375 0.65625 2.15625q0 1.734375 -1.28125 2.953125q-1.265625 1.21875 -3.21875 1.21875q-1.765625 0 -2.921875 -1.046875q-1.15625 -1.046875 -1.328125 -2.71875z" fill-rule="nonzero"/><path fill="#000000" fill-opacity="0.0" d="m263.87927 40.645668l41.07086 0l0 30.708664l-41.07086 0z" fill-rule="evenodd"/><path fill="#000000" d="m272.2234 58.605667l1.390625 -6.671875l0.828125 0l-1.390625 6.671875l-0.828125 0zm5.681793 -1.640625l0.8125 0.078125q-0.1875 0.59375 -0.8125 1.140625q-0.609375 0.53125 -1.46875 0.53125q-0.546875 0 -1.0 -0.25q-0.4375 -0.25 -0.671875 -0.71875q-0.234375 -0.46875 -0.234375 -1.078125q0 -0.796875 0.359375 -1.53125q0.375 -0.75 0.953125 -1.109375q0.578125 -0.375 1.265625 -0.375q0.859375 0 1.375 0.546875q0.515625 0.53125 0.515625 1.46875q0 0.34375 -0.0625 0.71875l-3.5625 0q-0.015625 0.140625 -0.015625 0.265625q0 0.671875 0.3125 1.03125q0.3125 0.359375 0.765625 0.359375q0.421875 0 0.828125 -0.28125q0.421875 -0.28125 0.640625 -0.796875zm-2.390625 -1.203125l2.71875 0q0 -0.125 0 -0.1875q0 -0.609375 -0.3125 -0.9375q-0.3125 -0.328125 -0.796875 -0.328125q-0.53125 0 -0.96875 0.359375q-0.421875 0.359375 -0.640625 1.09375zm4.109741 1.1875l0.828125 -0.046875q0 0.359375 0.109375 0.609375q0.109375 0.25 0.390625 0.40625q0.296875 0.15625 0.6875 0.15625q0.546875 0 0.8125 -0.21875q0.28125 -0.21875 0.28125 -0.515625q0 -0.203125 -0.15625 -0.40625q-0.171875 -0.1875 -0.828125 -0.46875q-0.65625 -0.28125 -0.828125 -0.390625q-0.3125 -0.1875 -0.46875 -0.4375q-0.15625 -0.25 -0.15625 -0.578125q0 -0.578125 0.453125 -0.984375q0.46875 -0.421875 1.28125 -0.421875q0.90625 0 1.375 0.421875q0.484375 0.421875 0.5 1.109375l-0.796875 0.0625q-0.015625 -0.4375 -0.3125 -0.6875q-0.296875 -0.265625 -0.828125 -0.265625q-0.421875 0 -0.671875 0.203125q-0.234375 0.1875 -0.234375 0.421875q0 0.21875 0.21875 0.40625q0.125 0.109375 0.703125 0.359375q0.9375 0.40625 1.1875 0.640625q0.390625 0.375 0.390625 0.921875q0 0.359375 -0.21875 0.703125q-0.21875 0.34375 -0.671875 0.5625q-0.453125 0.203125 -1.0625 0.203125q-0.84375 0 -1.4375 -0.421875q-0.578125 -0.40625 -0.546875 -1.34375zm4.6640625 0l0.828125 -0.046875q0 0.359375 0.109375 0.609375q0.109375 0.25 0.390625 0.40625q0.296875 0.15625 0.6875 0.15625q0.546875 0 0.8125 -0.21875q0.28125 -0.21875 0.28125 -0.515625q0 -0.203125 -0.15625 -0.40625q-0.171875 -0.1875 -0.828125 -0.46875q-0.65625 -0.28125 -0.828125 -0.390625q-0.3125 -0.1875 -0.46875 -0.4375q-0.15625 -0.25 -0.15625 -0.578125q0 -0.578125 0.453125 -0.984375q0.46875 -0.421875 1.28125 -0.421875q0.90625 0 1.375 0.421875q0.484375 0.421875 0.5 1.109375l-0.796875 0.0625q-0.015625 -0.4375 -0.3125 -0.6875q-0.296875 -0.265625 -0.828125 -0.265625q-0.421875 0 -0.671875 0.203125q-0.234375 0.1875 -0.234375 0.421875q0 0.21875 0.21875 0.40625q0.125 0.109375 0.703125 0.359375q0.9375 0.40625 1.1875 0.640625q0.390625 0.375 0.390625 0.921875q0 0.359375 -0.21875 0.703125q-0.21875 0.34375 -0.671875 0.5625q-0.453125 0.203125 -1.0625 0.203125q-0.84375 0 -1.4375 -0.421875q-0.578125 -0.40625 -0.546875 -1.34375zm8.1328125 0.015625l0.8125 0.078125q-0.1875 0.59375 -0.8125 1.140625q-0.609375 0.53125 -1.46875 0.53125q-0.546875 0 -1.0 -0.25q-0.4375 -0.25 -0.671875 -0.71875q-0.234375 -0.46875 -0.234375 -1.078125q0 -0.796875 0.359375 -1.53125q0.375 -0.75 0.953125 -1.109375q0.578125 -0.375 1.265625 -0.375q0.859375 0 1.375 0.546875q0.515625 0.53125 0.515625 1.46875q0 0.34375 -0.0625 0.71875l-3.5625 0q-0.015625 0.140625 -0.015625 0.265625q0 0.671875 0.3125 1.03125q0.3125 0.359375 0.765625 0.359375q0.421875 0 0.828125 -0.28125q0.421875 -0.28125 0.640625 -0.796875zm-2.390625 -1.203125l2.71875 0q0 -0.125 0 -0.1875q0 -0.609375 -0.3125 -0.9375q-0.3125 -0.328125 -0.796875 -0.328125q-0.53125 0 -0.96875 0.359375q-0.421875 0.359375 -0.640625 1.09375zm4.031616 2.84375l1.015625 -4.84375l0.71875 0l-0.203125 1.0q0.375 -0.5625 0.734375 -0.828125q0.359375 -0.28125 0.734375 -0.28125q0.234375 0 0.59375 0.1875l-0.328125 0.765625q-0.21875 -0.15625 -0.46875 -0.15625q-0.4375 0 -0.890625 0.484375q-0.453125 0.484375 -0.71875 1.734375l-0.40625 1.9375l-0.78125 0z" fill-rule="nonzero"/><path fill="#000000" fill-opacity="0.0" d="m223.87927 40.645668l40.59842 0l0 30.708664l-40.59842 0z" fill-rule="evenodd"/><path fill="#000000" d="m229.6662 59.043167l0.828125 0.078125q0 0.28125 0.078125 0.421875q0.078125 0.140625 0.234375 0.21875q0.234375 0.09375 0.578125 0.09375q0.75 0 1.078125 -0.375q0.21875 -0.265625 0.40625 -1.140625l0.078125 -0.390625q-0.640625 0.65625 -1.375 0.65625q-0.734375 0 -1.234375 -0.53125q-0.484375 -0.546875 -0.484375 -1.53125q0 -0.828125 0.390625 -1.5q0.390625 -0.6875 0.921875 -1.03125q0.546875 -0.359375 1.109375 -0.359375q0.953125 0 1.46875 0.90625l0.171875 -0.796875l0.75 0l-0.96875 4.671875q-0.171875 0.765625 -0.4375 1.203125q-0.25 0.4375 -0.71875 0.671875q-0.453125 0.234375 -1.0625 0.234375q-0.578125 0 -1.0 -0.15625q-0.421875 -0.140625 -0.640625 -0.4375q-0.203125 -0.28125 -0.203125 -0.65625q0 -0.125 0.03125 -0.25zm1.03125 -2.578125q0 0.5 0.09375 0.75q0.140625 0.34375 0.390625 0.53125q0.25 0.1875 0.5625 0.1875q0.40625 0 0.796875 -0.28125q0.40625 -0.296875 0.65625 -0.890625q0.25 -0.59375 0.25 -1.140625q0 -0.59375 -0.328125 -0.9375q-0.328125 -0.359375 -0.828125 -0.359375q-0.296875 0 -0.578125 0.171875q-0.28125 0.15625 -0.53125 0.484375q-0.234375 0.328125 -0.359375 0.796875q-0.125 0.453125 -0.125 0.6875zm4.203491 2.140625l1.015625 -4.84375l0.71875 0l-0.203125 1.0q0.375 -0.5625 0.734375 -0.828125q0.359375 -0.28125 0.734375 -0.28125q0.234375 0 0.59375 0.1875l-0.328125 0.765625q-0.21875 -0.15625 -0.46875 -0.15625q-0.4375 0 -0.890625 0.484375q-0.453125 0.484375 -0.71875 1.734375l-0.40625 1.9375l-0.78125 0zm6.6532135 -1.640625l0.8125 0.078125q-0.1875 0.59375 -0.8125 1.140625q-0.609375 0.53125 -1.46875 0.53125q-0.546875 0 -1.0 -0.25q-0.4375 -0.25 -0.671875 -0.71875q-0.234375 -0.46875 -0.234375 -1.078125q0 -0.796875 0.359375 -1.53125q0.375 -0.75 0.953125 -1.109375q0.578125 -0.375 1.265625 -0.375q0.859375 0 1.375 0.546875q0.515625 0.53125 0.515625 1.46875q0 0.34375 -0.0625 0.71875l-3.5625 0q-0.015625 0.140625 -0.015625 0.265625q0 0.671875 0.3125 1.03125q0.3125 0.359375 0.765625 0.359375q0.421875 0 0.828125 -0.28125q0.421875 -0.28125 0.640625 -0.796875zm-2.390625 -1.203125l2.71875 0q0 -0.125 0 -0.1875q0 -0.609375 -0.3125 -0.9375q-0.3125 -0.328125 -0.796875 -0.328125q-0.53125 0 -0.96875 0.359375q-0.421875 0.359375 -0.640625 1.09375zm7.297241 2.25q-0.4375 0.359375 -0.84375 0.53125q-0.390625 0.171875 -0.828125 0.171875q-0.671875 0 -1.09375 -0.390625q-0.40625 -0.390625 -0.40625 -1.015625q0 -0.40625 0.1875 -0.71875q0.1875 -0.3125 0.484375 -0.5q0.3125 -0.1875 0.75 -0.265625q0.28125 -0.0625 1.046875 -0.09375q0.78125 -0.03125 1.125 -0.15625q0.09375 -0.34375 0.09375 -0.5625q0 -0.28125 -0.203125 -0.453125q-0.296875 -0.21875 -0.84375 -0.21875q-0.515625 0 -0.84375 0.234375q-0.328125 0.21875 -0.484375 0.640625l-0.828125 -0.078125q0.25 -0.71875 0.796875 -1.09375q0.5625 -0.390625 1.40625 -0.390625q0.890625 0 1.421875 0.4375q0.390625 0.3125 0.390625 0.828125q0 0.390625 -0.109375 0.890625l-0.265625 1.203125q-0.125 0.578125 -0.125 0.9375q0 0.234375 0.09375 0.65625l-0.828125 0q-0.078125 -0.234375 -0.09375 -0.59375zm0.296875 -1.859375q-0.171875 0.078125 -0.375 0.109375q-0.1875 0.03125 -0.65625 0.078125q-0.71875 0.0625 -1.015625 0.15625q-0.296875 0.09375 -0.453125 0.3125q-0.140625 0.21875 -0.140625 0.46875q0 0.359375 0.234375 0.578125q0.234375 0.21875 0.6875 0.21875q0.40625 0 0.78125 -0.21875q0.375 -0.21875 0.59375 -0.59375q0.21875 -0.390625 0.34375 -1.109375zm3.5472412 1.78125l-0.140625 0.671875q-0.296875 0.078125 -0.5625 0.078125q-0.5 0 -0.78125 -0.234375q-0.21875 -0.1875 -0.21875 -0.5q0 -0.15625 0.109375 -0.734375l0.59375 -2.8125l-0.65625 0l0.125 -0.640625l0.65625 0l0.25 -1.1875l0.953125 -0.5625l-0.375 1.75l0.8125 0l-0.140625 0.640625l-0.8125 0l-0.546875 2.671875q-0.109375 0.515625 -0.109375 0.609375q0 0.15625 0.078125 0.234375q0.09375 0.078125 0.28125 0.078125q0.265625 0 0.484375 -0.0625zm4.2166595 -0.96875l0.8125 0.078125q-0.1875 0.59375 -0.8125 1.140625q-0.609375 0.53125 -1.46875 0.53125q-0.546875 0 -1.0 -0.25q-0.4375 -0.25 -0.671875 -0.71875q-0.234375 -0.46875 -0.234375 -1.078125q0 -0.796875 0.359375 -1.53125q0.375 -0.75 0.953125 -1.109375q0.578125 -0.375 1.265625 -0.375q0.859375 0 1.375 0.546875q0.515625 0.53125 0.515625 1.46875q0 0.34375 -0.0625 0.71875l-3.5625 0q-0.015625 0.140625 -0.015625 0.265625q0 0.671875 0.3125 1.03125q0.3125 0.359375 0.765625 0.359375q0.421875 0 0.828125 -0.28125q0.421875 -0.28125 0.640625 -0.796875zm-2.390625 -1.203125l2.71875 0q0 -0.125 0 -0.1875q0 -0.609375 -0.3125 -0.9375q-0.3125 -0.328125 -0.796875 -0.328125q-0.53125 0 -0.96875 0.359375q-0.421875 0.359375 -0.640625 1.09375zm4.031616 2.84375l1.015625 -4.84375l0.71875 0l-0.203125 1.0q0.375 -0.5625 0.734375 -0.828125q0.359375 -0.28125 0.734375 -0.28125q0.234375 0 0.59375 0.1875l-0.328125 0.765625q-0.21875 -0.15625 -0.46875 -0.15625q-0.4375 0 -0.890625 0.484375q-0.453125 0.484375 -0.71875 1.734375l-0.40625 1.9375l-0.78125 0z" fill-rule="nonzero"/><path fill="#000000" fill-opacity="0.0" d="m124.414696 77.845146l0 -25.007877" fill-rule="evenodd"/><path stroke="#000000" stroke-width="1.0" stroke-linejoin="round" stroke-linecap="butt" d="m124.414696 77.845146l0 -19.007877" fill-rule="evenodd"/><path fill="#000000" stroke="#000000" stroke-width="1.0" stroke-linecap="butt" d="m126.06643 58.83727l-1.6517334 -4.5380974l-1.6517334 4.5380974z" fill-rule="evenodd"/><path fill="#000000" fill-opacity="0.0" d="m103.879265 67.62992l41.07087 0l0 27.46457l-41.07087 0z" fill-rule="evenodd"/><path fill="#0000ff" d="m109.57133 80.23305l-0.953125 0l0 -0.46875l1.53125 0l0 2.796875l0.96875 0l0 0.46875l-2.609375 0l0 -0.46875l1.0625 0l0 -2.328125zm0.203125 -1.828125q0.09375 0 0.171875 0.03125q0.09375 0.03125 0.140625 0.09375q0.0625 0.0625 0.09375 0.140625q0.046875 0.078125 0.046875 0.171875q0 0.09375 -0.046875 0.171875q-0.03125 0.078125 -0.09375 0.140625q-0.046875 0.0625 -0.140625 0.109375q-0.078125 0.03125 -0.171875 0.03125q-0.09375 0 -0.171875 -0.03125q-0.078125 -0.046875 -0.140625 -0.109375q-0.0625 -0.0625 -0.09375 -0.140625q-0.03125 -0.078125 -0.03125 -0.171875q0 -0.09375 0.03125 -0.171875q0.03125 -0.078125 0.09375 -0.140625q0.0625 -0.0625 0.140625 -0.09375q0.078125 -0.03125 0.171875 -0.03125zm2.3471375 1.359375l0.515625 0l0.015625 0.53125q0.140625 -0.171875 0.265625 -0.28125q0.140625 -0.109375 0.265625 -0.171875q0.140625 -0.078125 0.265625 -0.109375q0.140625 -0.03125 0.28125 -0.03125q0.5 0 0.75 0.296875q0.265625 0.296875 0.265625 0.90625l0 2.125l-0.5625 0l0 -2.078125q0 -0.390625 -0.140625 -0.5625q-0.140625 -0.1875 -0.421875 -0.1875q-0.109375 0 -0.21875 0.03125q-0.09375 0.03125 -0.203125 0.109375q-0.109375 0.0625 -0.234375 0.203125q-0.125 0.125 -0.28125 0.3125l0 2.171875l-0.5625 0l0 -3.265625zm3.5033875 1.703125q0 -0.421875 0.109375 -0.734375q0.109375 -0.328125 0.3125 -0.546875q0.21875 -0.234375 0.515625 -0.34375q0.296875 -0.109375 0.65625 -0.109375q0.15625 0 0.296875 0.015625q0.15625 0.015625 0.296875 0.0625l0 -1.375l0.578125 0l0 4.59375l-0.515625 0l-0.015625 -0.625q-0.234375 0.359375 -0.515625 0.53125q-0.265625 0.15625 -0.59375 0.15625q-0.28125 0 -0.5 -0.109375q-0.203125 -0.125 -0.34375 -0.328125q-0.140625 -0.21875 -0.21875 -0.515625q-0.0625 -0.3125 -0.0625 -0.671875zm0.578125 -0.03125q0 0.59375 0.171875 0.890625q0.171875 0.28125 0.484375 0.28125q0.21875 0 0.453125 -0.1875q0.25 -0.203125 0.5 -0.578125l0 -1.515625q-0.125 -0.0625 -0.296875 -0.09375q-0.171875 -0.03125 -0.34375 -0.03125q-0.453125 0 -0.71875 0.296875q-0.25 0.296875 -0.25 0.9375zm6.0033875 -0.203125q0 0.109375 -0.015625 0.203125q0 0.078125 0 0.140625l-2.296875 0q0 0.5 0.28125 0.78125q0.28125 0.265625 0.8125 0.265625q0.140625 0 0.28125 -0.015625q0.140625 -0.015625 0.265625 -0.03125q0.140625 -0.015625 0.265625 -0.03125q0.125 -0.03125 0.21875 -0.0625l0 0.453125q-0.21875 0.078125 -0.515625 0.109375q-0.296875 0.046875 -0.609375 0.046875q-0.40625 0 -0.71875 -0.109375q-0.296875 -0.125 -0.5 -0.328125q-0.1875 -0.21875 -0.28125 -0.53125q-0.09375 -0.328125 -0.09375 -0.71875q0 -0.34375 0.09375 -0.640625q0.109375 -0.3125 0.296875 -0.546875q0.1875 -0.234375 0.46875 -0.375q0.28125 -0.140625 0.625 -0.140625q0.34375 0 0.609375 0.109375q0.265625 0.109375 0.4375 0.3125q0.1875 0.1875 0.28125 0.46875q0.09375 0.28125 0.09375 0.640625zm-0.59375 -0.09375q0.015625 -0.21875 -0.046875 -0.390625q-0.046875 -0.1875 -0.15625 -0.3125q-0.109375 -0.125 -0.28125 -0.203125q-0.15625 -0.078125 -0.359375 -0.078125q-0.1875 0 -0.34375 0.078125q-0.15625 0.0625 -0.265625 0.203125q-0.109375 0.125 -0.1875 0.3125q-0.0625 0.171875 -0.078125 0.390625l1.71875 0zm4.4408875 1.890625l-0.765625 0l-0.875 -1.25l-0.875 1.25l-0.71875 0l1.25 -1.640625l-1.203125 -1.625l0.734375 0l0.859375 1.25l0.828125 -1.25l0.703125 0l-1.21875 1.640625l1.28125 1.625zm3.847145 1.328125l-3.6562576 0l0 -0.46875l3.6562576 0l0 0.46875zm2.8471375 -1.328125l0 -2.34375q0 -0.15625 -0.015625 -0.25q0 -0.09375 -0.03125 -0.15625q-0.015625 -0.0625 -0.0625 -0.078125q-0.03125 -0.015625 -0.09375 -0.015625q-0.0625 0 -0.125 0.046875q-0.046875 0.03125 -0.109375 0.125q-0.0625 0.078125 -0.140625 0.21875q-0.078125 0.140625 -0.171875 0.359375l0 2.09375l-0.53125 0l0 -2.28125q0 -0.171875 -0.015625 -0.28125q0 -0.125 -0.03125 -0.1875q-0.015625 -0.0625 -0.0625 -0.078125q-0.03125 -0.015625 -0.09375 -0.015625q-0.046875 0 -0.109375 0.03125q-0.046875 0.03125 -0.109375 0.125q-0.0625 0.078125 -0.140625 0.21875q-0.078125 0.140625 -0.1875 0.375l0 2.09375l-0.515625 0l0 -3.265625l0.421875 0l0.03125 0.625q0.078125 -0.1875 0.15625 -0.3125q0.09375 -0.140625 0.171875 -0.21875q0.078125 -0.078125 0.171875 -0.109375q0.109375 -0.046875 0.21875 -0.046875q0.265625 0 0.40625 0.171875q0.140625 0.171875 0.140625 0.546875q0.078125 -0.171875 0.140625 -0.296875q0.078125 -0.140625 0.15625 -0.234375q0.09375 -0.09375 0.1875 -0.140625q0.109375 -0.046875 0.25 -0.046875q0.609375 0 0.609375 0.953125l0 2.375l-0.515625 0zm3.4252625 0l0 -0.4375q-0.265625 0.265625 -0.546875 0.390625q-0.28125 0.109375 -0.578125 0.109375q-0.28125 0 -0.484375 -0.0625q-0.1875 -0.078125 -0.328125 -0.203125q-0.125 -0.125 -0.1875 -0.296875q-0.046875 -0.171875 -0.046875 -0.375q0 -0.484375 0.359375 -0.765625q0.359375 -0.28125 1.078125 -0.28125l0.671875 0l0 -0.28125q0 -0.296875 -0.1875 -0.46875q-0.171875 -0.171875 -0.5625 -0.171875q-0.265625 0 -0.546875 0.0625q-0.265625 0.0625 -0.546875 0.171875l0 -0.5q0.109375 -0.046875 0.234375 -0.078125q0.140625 -0.046875 0.28125 -0.0625q0.15625 -0.03125 0.3125 -0.046875q0.15625 -0.03125 0.3125 -0.03125q0.296875 0 0.53125 0.078125q0.25 0.0625 0.40625 0.203125q0.171875 0.125 0.25 0.328125q0.09375 0.203125 0.09375 0.46875l0 2.25l-0.515625 0zm-0.0625 -1.484375l-0.703125 0q-0.21875 0 -0.375 0.046875q-0.15625 0.03125 -0.25 0.109375q-0.09375 0.078125 -0.140625 0.1875q-0.046875 0.109375 -0.046875 0.25q0 0.09375 0.03125 0.1875q0.03125 0.078125 0.09375 0.15625q0.0625 0.0625 0.15625 0.109375q0.109375 0.03125 0.265625 0.03125q0.1875 0 0.4375 -0.125q0.265625 -0.125 0.53125 -0.375l0 -0.578125zm4.5815125 1.484375l-0.765625 0l-0.875 -1.25l-0.875 1.25l-0.71875 0l1.25 -1.640625l-1.203125 -1.625l0.734375 0l0.859375 1.25l0.828125 -1.25l0.703125 0l-1.21875 1.640625l1.28125 1.625z" fill-rule="nonzero"/><path fill="#000000" fill-opacity="0.0" d="m204.4147 67.62992l0 -14.771652" fill-rule="evenodd"/><path stroke="#000000" stroke-width="1.0" stroke-linejoin="round" stroke-linecap="butt" d="m204.4147 67.62992l0 -8.771652" fill-rule="evenodd"/><path fill="#000000" stroke="#000000" stroke-width="1.0" stroke-linecap="butt" d="m206.06644 58.85827l-1.6517334 -4.5380974l-1.6517334 4.5380974z" fill-rule="evenodd"/><path fill="#000000" fill-opacity="0.0" d="m183.87927 56.963253l41.07086 0l0 27.464565l-41.07086 0z" fill-rule="evenodd"/><path fill="#ff0000" d="m189.57133 69.566376l-0.953125 0l0 -0.46875l1.53125 0l0 2.796875l0.96875 0l0 0.46875l-2.609375 0l0 -0.46875l1.0625 0l0 -2.328125zm0.203125 -1.828125q0.09375 0 0.171875 0.03125q0.09375 0.03125 0.140625 0.09375q0.0625 0.0625 0.09375 0.140625q0.046875 0.078125 0.046875 0.171875q0 0.09375 -0.046875 0.171875q-0.03125 0.078125 -0.09375 0.140625q-0.046875 0.0625 -0.140625 0.109375q-0.078125 0.03125 -0.171875 0.03125q-0.09375 0 -0.171875 -0.03125q-0.078125 -0.046875 -0.140625 -0.109375q-0.0625 -0.0625 -0.09375 -0.140625q-0.03125 -0.078125 -0.03125 -0.171875q0 -0.09375 0.03125 -0.171875q0.03125 -0.078125 0.09375 -0.140625q0.0625 -0.0625 0.140625 -0.09375q0.078125 -0.03125 0.171875 -0.03125zm2.3471375 1.359375l0.515625 0l0.015625 0.53125q0.140625 -0.171875 0.265625 -0.28125q0.140625 -0.109375 0.265625 -0.171875q0.140625 -0.078125 0.265625 -0.109375q0.140625 -0.03125 0.28125 -0.03125q0.5 0 0.75 0.296875q0.265625 0.296875 0.265625 0.90625l0 2.125l-0.5625 0l0 -2.078125q0 -0.390625 -0.140625 -0.5625q-0.140625 -0.1875 -0.421875 -0.1875q-0.109375 0 -0.21875 0.03125q-0.09375 0.03125 -0.203125 0.109375q-0.109375 0.0625 -0.234375 0.203125q-0.125 0.125 -0.28125 0.3125l0 2.171875l-0.5625 0l0 -3.265625zm3.5033875 1.703125q0 -0.421875 0.109375 -0.734375q0.109375 -0.328125 0.3125 -0.546875q0.21875 -0.234375 0.515625 -0.34375q0.296875 -0.109375 0.65625 -0.109375q0.15625 0 0.296875 0.015625q0.15625 0.015625 0.296875 0.0625l0 -1.375l0.578125 0l0 4.59375l-0.515625 0l-0.015625 -0.625q-0.234375 0.359375 -0.515625 0.53125q-0.265625 0.15625 -0.59375 0.15625q-0.28125 0 -0.5 -0.109375q-0.203125 -0.125 -0.34375 -0.328125q-0.140625 -0.21875 -0.21875 -0.515625q-0.0625 -0.3125 -0.0625 -0.671875zm0.578125 -0.03125q0 0.59375 0.171875 0.890625q0.171875 0.28125 0.484375 0.28125q0.21875 0 0.453125 -0.1875q0.25 -0.203125 0.5 -0.578125l0 -1.515625q-0.125 -0.0625 -0.296875 -0.09375q-0.171875 -0.03125 -0.34375 -0.03125q-0.453125 0 -0.71875 0.296875q-0.25 0.296875 -0.25 0.9375zm6.0033875 -0.203125q0 0.109375 -0.015625 0.203125q0 0.078125 0 0.140625l-2.296875 0q0 0.5 0.28125 0.78125q0.28125 0.265625 0.8125 0.265625q0.140625 0 0.28125 -0.015625q0.140625 -0.015625 0.265625 -0.03125q0.140625 -0.015625 0.265625 -0.03125q0.125 -0.03125 0.21875 -0.0625l0 0.453125q-0.21875 0.078125 -0.515625 0.109375q-0.296875 0.046875 -0.609375 0.046875q-0.40625 0 -0.71875 -0.109375q-0.296875 -0.125 -0.5 -0.328125q-0.1875 -0.21875 -0.28125 -0.53125q-0.09375 -0.328125 -0.09375 -0.71875q0 -0.34375 0.09375 -0.640625q0.109375 -0.3125 0.296875 -0.546875q0.1875 -0.234375 0.46875 -0.375q0.28125 -0.140625 0.625 -0.140625q0.34375 0 0.609375 0.109375q0.265625 0.109375 0.4375 0.3125q0.1875 0.1875 0.28125 0.46875q0.09375 0.28125 0.09375 0.640625zm-0.59375 -0.09375q0.015625 -0.21875 -0.046875 -0.390625q-0.046875 -0.1875 -0.15625 -0.3125q-0.109375 -0.125 -0.28125 -0.203125q-0.15625 -0.078125 -0.359375 -0.078125q-0.1875 0 -0.34375 0.078125q-0.15625 0.0625 -0.265625 0.203125q-0.109375 0.125 -0.1875 0.3125q-0.0625 0.171875 -0.078125 0.390625l1.71875 0zm4.4408875 1.890625l-0.765625 0l-0.875 -1.25l-0.875 1.25l-0.71875 0l1.25 -1.640625l-1.203125 -1.625l0.734375 0l0.859375 1.25l0.828125 -1.25l0.703125 0l-1.21875 1.640625l1.28125 1.625zm3.8471375 1.328125l-3.65625 0l0 -0.46875l3.65625 0l0 0.46875zm2.8471375 -1.328125l0 -2.34375q0 -0.15625 -0.015625 -0.25q0 -0.09375 -0.03125 -0.15625q-0.015625 -0.0625 -0.0625 -0.078125q-0.03125 -0.015625 -0.09375 -0.015625q-0.0625 0 -0.125 0.046875q-0.046875 0.03125 -0.109375 0.125q-0.0625 0.078125 -0.140625 0.21875q-0.078125 0.140625 -0.171875 0.359375l0 2.09375l-0.53125 0l0 -2.28125q0 -0.171875 -0.015625 -0.28125q0 -0.125 -0.03125 -0.1875q-0.015625 -0.0625 -0.0625 -0.078125q-0.03125 -0.015625 -0.09375 -0.015625q-0.046875 0 -0.109375 0.03125q-0.046875 0.03125 -0.109375 0.125q-0.0625 0.078125 -0.140625 0.21875q-0.078125 0.140625 -0.1875 0.375l0 2.09375l-0.515625 0l0 -3.265625l0.421875 0l0.03125 0.625q0.078125 -0.1875 0.15625 -0.3125q0.09375 -0.140625 0.171875 -0.21875q0.078125 -0.078125 0.171875 -0.109375q0.109375 -0.046875 0.21875 -0.046875q0.265625 0 0.40625 0.171875q0.140625 0.171875 0.140625 0.546875q0.078125 -0.171875 0.140625 -0.296875q0.078125 -0.140625 0.15625 -0.234375q0.09375 -0.09375 0.1875 -0.140625q0.109375 -0.046875 0.25 -0.046875q0.609375 0 0.609375 0.953125l0 2.375l-0.515625 0zm2.4408875 -2.796875l-0.953125 0l0 -0.46875l1.53125 0l0 2.796875l0.96875 0l0 0.46875l-2.609375 0l0 -0.46875l1.0625 0l0 -2.328125zm0.203125 -1.828125q0.09375 0 0.171875 0.03125q0.09375 0.03125 0.140625 0.09375q0.0625 0.0625 0.09375 0.140625q0.046875 0.078125 0.046875 0.171875q0 0.09375 -0.046875 0.171875q-0.03125 0.078125 -0.09375 0.140625q-0.046875 0.0625 -0.140625 0.109375q-0.078125 0.03125 -0.171875 0.03125q-0.09375 0 -0.171875 -0.03125q-0.078125 -0.046875 -0.140625 -0.109375q-0.0625 -0.0625 -0.09375 -0.140625q-0.03125 -0.078125 -0.03125 -0.171875q0 -0.09375 0.03125 -0.171875q0.03125 -0.078125 0.09375 -0.140625q0.0625 -0.0625 0.140625 -0.09375q0.078125 -0.03125 0.171875 -0.03125zm2.3471375 1.359375l0.515625 0l0.015625 0.53125q0.140625 -0.171875 0.265625 -0.28125q0.140625 -0.109375 0.265625 -0.171875q0.140625 -0.078125 0.265625 -0.109375q0.140625 -0.03125 0.28125 -0.03125q0.5 0 0.75 0.296875q0.265625 0.296875 0.265625 0.90625l0 2.125l-0.5625 0l0 -2.078125q0 -0.390625 -0.140625 -0.5625q-0.140625 -0.1875 -0.421875 -0.1875q-0.109375 0 -0.21875 0.03125q-0.09375 0.03125 -0.203125 0.109375q-0.109375 0.0625 -0.234375 0.203125q-0.125 0.125 -0.28125 0.3125l0 2.171875l-0.5625 0l0 -3.265625z" fill-rule="nonzero"/><path fill="#000000" fill-opacity="0.0" d="m204.4147 139.62993l0 -14.77166" fill-rule="evenodd"/><path stroke="#000000" stroke-width="1.0" stroke-linejoin="round" stroke-linecap="butt" d="m204.4147 139.62993l0 -8.7716675" fill-rule="evenodd"/><path fill="#000000" stroke="#000000" stroke-width="1.0" stroke-linecap="butt" d="m206.06644 130.85826l-1.6517334 -4.5380936l-1.6517334 4.5380936z" fill-rule="evenodd"/><path fill="#000000" fill-opacity="0.0" d="m183.87927 128.96326l41.07086 0l0 27.46457l-41.07086 0z" fill-rule="evenodd"/><path fill="#ff0000" d="m189.57133 141.56638l-0.953125 0l0 -0.46875l1.53125 0l0 2.796875l0.96875 0l0 0.46875l-2.609375 0l0 -0.46875l1.0625 0l0 -2.328125zm0.203125 -1.828125q0.09375 0 0.171875 0.03125q0.09375 0.03125 0.140625 0.09375q0.0625 0.0625 0.09375 0.140625q0.046875 0.078125 0.046875 0.171875q0 0.09375 -0.046875 0.171875q-0.03125 0.078125 -0.09375 0.140625q-0.046875 0.0625 -0.140625 0.109375q-0.078125 0.03125 -0.171875 0.03125q-0.09375 0 -0.171875 -0.03125q-0.078125 -0.046875 -0.140625 -0.109375q-0.0625 -0.0625 -0.09375 -0.140625q-0.03125 -0.078125 -0.03125 -0.171875q0 -0.09375 0.03125 -0.171875q0.03125 -0.078125 0.09375 -0.140625q0.0625 -0.0625 0.140625 -0.09375q0.078125 -0.03125 0.171875 -0.03125zm2.3471375 1.359375l0.515625 0l0.015625 0.53125q0.140625 -0.171875 0.265625 -0.28125q0.140625 -0.109375 0.265625 -0.171875q0.140625 -0.078125 0.265625 -0.109375q0.140625 -0.03125 0.28125 -0.03125q0.5 0 0.75 0.296875q0.265625 0.296875 0.265625 0.90625l0 2.125l-0.5625 0l0 -2.078125q0 -0.390625 -0.140625 -0.5625q-0.140625 -0.1875 -0.421875 -0.1875q-0.109375 0 -0.21875 0.03125q-0.09375 0.03125 -0.203125 0.109375q-0.109375 0.0625 -0.234375 0.203125q-0.125 0.125 -0.28125 0.3125l0 2.171875l-0.5625 0l0 -3.265625zm3.5033875 1.703125q0 -0.421875 0.109375 -0.734375q0.109375 -0.328125 0.3125 -0.546875q0.21875 -0.234375 0.515625 -0.34375q0.296875 -0.109375 0.65625 -0.109375q0.15625 0 0.296875 0.015625q0.15625 0.015625 0.296875 0.0625l0 -1.375l0.578125 0l0 4.59375l-0.515625 0l-0.015625 -0.625q-0.234375 0.359375 -0.515625 0.53125q-0.265625 0.15625 -0.59375 0.15625q-0.28125 0 -0.5 -0.109375q-0.203125 -0.125 -0.34375 -0.328125q-0.140625 -0.21875 -0.21875 -0.515625q-0.0625 -0.3125 -0.0625 -0.671875zm0.578125 -0.03125q0 0.59375 0.171875 0.890625q0.171875 0.28125 0.484375 0.28125q0.21875 0 0.453125 -0.1875q0.25 -0.203125 0.5 -0.578125l0 -1.515625q-0.125 -0.0625 -0.296875 -0.09375q-0.171875 -0.03125 -0.34375 -0.03125q-0.453125 0 -0.71875 0.296875q-0.25 0.296875 -0.25 0.9375zm6.0033875 -0.203125q0 0.109375 -0.015625 0.203125q0 0.078125 0 0.140625l-2.296875 0q0 0.5 0.28125 0.78125q0.28125 0.265625 0.8125 0.265625q0.140625 0 0.28125 -0.015625q0.140625 -0.015625 0.265625 -0.03125q0.140625 -0.015625 0.265625 -0.03125q0.125 -0.03125 0.21875 -0.0625l0 0.453125q-0.21875 0.078125 -0.515625 0.109375q-0.296875 0.046875 -0.609375 0.046875q-0.40625 0 -0.71875 -0.109375q-0.296875 -0.125 -0.5 -0.328125q-0.1875 -0.21875 -0.28125 -0.53125q-0.09375 -0.328125 -0.09375 -0.71875q0 -0.34375 0.09375 -0.640625q0.109375 -0.3125 0.296875 -0.546875q0.1875 -0.234375 0.46875 -0.375q0.28125 -0.140625 0.625 -0.140625q0.34375 0 0.609375 0.109375q0.265625 0.109375 0.4375 0.3125q0.1875 0.1875 0.28125 0.46875q0.09375 0.28125 0.09375 0.640625zm-0.59375 -0.09375q0.015625 -0.21875 -0.046875 -0.390625q-0.046875 -0.1875 -0.15625 -0.3125q-0.109375 -0.125 -0.28125 -0.203125q-0.15625 -0.078125 -0.359375 -0.078125q-0.1875 0 -0.34375 0.078125q-0.15625 0.0625 -0.265625 0.203125q-0.109375 0.125 -0.1875 0.3125q-0.0625 0.171875 -0.078125 0.390625l1.71875 0zm4.4408875 1.890625l-0.765625 0l-0.875 -1.25l-0.875 1.25l-0.71875 0l1.25 -1.640625l-1.203125 -1.625l0.734375 0l0.859375 1.25l0.828125 -1.25l0.703125 0l-1.21875 1.640625l1.28125 1.625zm3.8471375 1.328125l-3.65625 0l0 -0.46875l3.65625 0l0 0.46875zm2.8471375 -1.328125l0 -2.34375q0 -0.15625 -0.015625 -0.25q0 -0.09375 -0.03125 -0.15625q-0.015625 -0.0625 -0.0625 -0.078125q-0.03125 -0.015625 -0.09375 -0.015625q-0.0625 0 -0.125 0.046875q-0.046875 0.03125 -0.109375 0.125q-0.0625 0.078125 -0.140625 0.21875q-0.078125 0.140625 -0.171875 0.359375l0 2.09375l-0.53125 0l0 -2.28125q0 -0.171875 -0.015625 -0.28125q0 -0.125 -0.03125 -0.1875q-0.015625 -0.0625 -0.0625 -0.078125q-0.03125 -0.015625 -0.09375 -0.015625q-0.046875 0 -0.109375 0.03125q-0.046875 0.03125 -0.109375 0.125q-0.0625 0.078125 -0.140625 0.21875q-0.078125 0.140625 -0.1875 0.375l0 2.09375l-0.515625 0l0 -3.265625l0.421875 0l0.03125 0.625q0.078125 -0.1875 0.15625 -0.3125q0.09375 -0.140625 0.171875 -0.21875q0.078125 -0.078125 0.171875 -0.109375q0.109375 -0.046875 0.21875 -0.046875q0.265625 0 0.40625 0.171875q0.140625 0.171875 0.140625 0.546875q0.078125 -0.171875 0.140625 -0.296875q0.078125 -0.140625 0.15625 -0.234375q0.09375 -0.09375 0.1875 -0.140625q0.109375 -0.046875 0.25 -0.046875q0.609375 0 0.609375 0.953125l0 2.375l-0.515625 0zm2.4408875 -2.796875l-0.953125 0l0 -0.46875l1.53125 0l0 2.796875l0.96875 0l0 0.46875l-2.609375 0l0 -0.46875l1.0625 0l0 -2.328125zm0.203125 -1.828125q0.09375 0 0.171875 0.03125q0.09375 0.03125 0.140625 0.09375q0.0625 0.0625 0.09375 0.140625q0.046875 0.078125 0.046875 0.171875q0 0.09375 -0.046875 0.171875q-0.03125 0.078125 -0.09375 0.140625q-0.046875 0.0625 -0.140625 0.109375q-0.078125 0.03125 -0.171875 0.03125q-0.09375 0 -0.171875 -0.03125q-0.078125 -0.046875 -0.140625 -0.109375q-0.0625 -0.0625 -0.09375 -0.140625q-0.03125 -0.078125 -0.03125 -0.171875q0 -0.09375 0.03125 -0.171875q0.03125 -0.078125 0.09375 -0.140625q0.0625 -0.0625 0.140625 -0.09375q0.078125 -0.03125 0.171875 -0.03125zm2.3471375 1.359375l0.515625 0l0.015625 0.53125q0.140625 -0.171875 0.265625 -0.28125q0.140625 -0.109375 0.265625 -0.171875q0.140625 -0.078125 0.265625 -0.109375q0.140625 -0.03125 0.28125 -0.03125q0.5 0 0.75 0.296875q0.265625 0.296875 0.265625 0.90625l0 2.125l-0.5625 0l0 -2.078125q0 -0.390625 -0.140625 -0.5625q-0.140625 -0.1875 -0.421875 -0.1875q-0.109375 0 -0.21875 0.03125q-0.09375 0.03125 -0.203125 0.109375q-0.109375 0.0625 -0.234375 0.203125q-0.125 0.125 -0.28125 0.3125l0 2.171875l-0.5625 0l0 -3.265625z" fill-rule="nonzero"/><path fill="#000000" fill-opacity="0.0" d="m244.4147 149.84514l0 -25.007866" fill-rule="evenodd"/><path stroke="#000000" stroke-width="1.0" stroke-linejoin="round" stroke-linecap="butt" d="m244.4147 149.84514l0 -19.007874" fill-rule="evenodd"/><path fill="#000000" stroke="#000000" stroke-width="1.0" stroke-linecap="butt" d="m246.06644 130.83727l-1.6517334 -4.5380936l-1.6517334 4.5380936z" fill-rule="evenodd"/><path fill="#000000" fill-opacity="0.0" d="m223.87927 139.62993l41.07086 0l0 27.464554l-41.07086 0z" fill-rule="evenodd"/><path fill="#0000ff" d="m229.57133 152.23305l-0.953125 0l0 -0.46875l1.53125 0l0 2.796875l0.96875 0l0 0.46875l-2.609375 0l0 -0.46875l1.0625 0l0 -2.328125zm0.203125 -1.828125q0.09375 0 0.171875 0.03125q0.09375 0.03125 0.140625 0.09375q0.0625 0.0625 0.09375 0.140625q0.046875 0.078125 0.046875 0.171875q0 0.09375 -0.046875 0.171875q-0.03125 0.078125 -0.09375 0.140625q-0.046875 0.0625 -0.140625 0.109375q-0.078125 0.03125 -0.171875 0.03125q-0.09375 0 -0.171875 -0.03125q-0.078125 -0.046875 -0.140625 -0.109375q-0.0625 -0.0625 -0.09375 -0.140625q-0.03125 -0.078125 -0.03125 -0.171875q0 -0.09375 0.03125 -0.171875q0.03125 -0.078125 0.09375 -0.140625q0.0625 -0.0625 0.140625 -0.09375q0.078125 -0.03125 0.171875 -0.03125zm2.3471375 1.359375l0.515625 0l0.015625 0.53125q0.140625 -0.171875 0.265625 -0.28125q0.140625 -0.109375 0.265625 -0.171875q0.140625 -0.078125 0.265625 -0.109375q0.140625 -0.03125 0.28125 -0.03125q0.5 0 0.75 0.296875q0.265625 0.296875 0.265625 0.90625l0 2.125l-0.5625 0l0 -2.078125q0 -0.390625 -0.140625 -0.5625q-0.140625 -0.1875 -0.421875 -0.1875q-0.109375 0 -0.21875 0.03125q-0.09375 0.03125 -0.203125 0.109375q-0.109375 0.0625 -0.234375 0.203125q-0.125 0.125 -0.28125 0.3125l0 2.171875l-0.5625 0l0 -3.265625zm3.5033875 1.703125q0 -0.421875 0.109375 -0.734375q0.109375 -0.328125 0.3125 -0.546875q0.21875 -0.234375 0.515625 -0.34375q0.296875 -0.109375 0.65625 -0.109375q0.15625 0 0.296875 0.015625q0.15625 0.015625 0.296875 0.0625l0 -1.375l0.578125 0l0 4.59375l-0.515625 0l-0.015625 -0.625q-0.234375 0.359375 -0.515625 0.53125q-0.265625 0.15625 -0.59375 0.15625q-0.28125 0 -0.5 -0.109375q-0.203125 -0.125 -0.34375 -0.328125q-0.140625 -0.21875 -0.21875 -0.515625q-0.0625 -0.3125 -0.0625 -0.671875zm0.578125 -0.03125q0 0.59375 0.171875 0.890625q0.171875 0.28125 0.484375 0.28125q0.21875 0 0.453125 -0.1875q0.25 -0.203125 0.5 -0.578125l0 -1.515625q-0.125 -0.0625 -0.296875 -0.09375q-0.171875 -0.03125 -0.34375 -0.03125q-0.453125 0 -0.71875 0.296875q-0.25 0.296875 -0.25 0.9375zm6.0033875 -0.203125q0 0.109375 -0.015625 0.203125q0 0.078125 0 0.140625l-2.296875 0q0 0.5 0.28125 0.78125q0.28125 0.265625 0.8125 0.265625q0.140625 0 0.28125 -0.015625q0.140625 -0.015625 0.265625 -0.03125q0.140625 -0.015625 0.265625 -0.03125q0.125 -0.03125 0.21875 -0.0625l0 0.453125q-0.21875 0.078125 -0.515625 0.109375q-0.296875 0.046875 -0.609375 0.046875q-0.40625 0 -0.71875 -0.109375q-0.296875 -0.125 -0.5 -0.328125q-0.1875 -0.21875 -0.28125 -0.53125q-0.09375 -0.328125 -0.09375 -0.71875q0 -0.34375 0.09375 -0.640625q0.109375 -0.3125 0.296875 -0.546875q0.1875 -0.234375 0.46875 -0.375q0.28125 -0.140625 0.625 -0.140625q0.34375 0 0.609375 0.109375q0.265625 0.109375 0.4375 0.3125q0.1875 0.1875 0.28125 0.46875q0.09375 0.28125 0.09375 0.640625zm-0.59375 -0.09375q0.015625 -0.21875 -0.046875 -0.390625q-0.046875 -0.1875 -0.15625 -0.3125q-0.109375 -0.125 -0.28125 -0.203125q-0.15625 -0.078125 -0.359375 -0.078125q-0.1875 0 -0.34375 0.078125q-0.15625 0.0625 -0.265625 0.203125q-0.109375 0.125 -0.1875 0.3125q-0.0625 0.171875 -0.078125 0.390625l1.71875 0zm4.4408875 1.890625l-0.765625 0l-0.875 -1.25l-0.875 1.25l-0.71875 0l1.25 -1.640625l-1.203125 -1.625l0.734375 0l0.859375 1.25l0.828125 -1.25l0.703125 0l-1.21875 1.640625l1.28125 1.625zm3.8471375 1.328125l-3.65625 0l0 -0.46875l3.65625 0l0 0.46875zm2.8471375 -1.328125l0 -2.34375q0 -0.15625 -0.015625 -0.25q0 -0.09375 -0.03125 -0.15625q-0.015625 -0.0625 -0.0625 -0.078125q-0.03125 -0.015625 -0.09375 -0.015625q-0.0625 0 -0.125 0.046875q-0.046875 0.03125 -0.109375 0.125q-0.0625 0.078125 -0.140625 0.21875q-0.078125 0.140625 -0.171875 0.359375l0 2.09375l-0.53125 0l0 -2.28125q0 -0.171875 -0.015625 -0.28125q0 -0.125 -0.03125 -0.1875q-0.015625 -0.0625 -0.0625 -0.078125q-0.03125 -0.015625 -0.09375 -0.015625q-0.046875 0 -0.109375 0.03125q-0.046875 0.03125 -0.109375 0.125q-0.0625 0.078125 -0.140625 0.21875q-0.078125 0.140625 -0.1875 0.375l0 2.09375l-0.515625 0l0 -3.265625l0.421875 0l0.03125 0.625q0.078125 -0.1875 0.15625 -0.3125q0.09375 -0.140625 0.171875 -0.21875q0.078125 -0.078125 0.171875 -0.109375q0.109375 -0.046875 0.21875 -0.046875q0.265625 0 0.40625 0.171875q0.140625 0.171875 0.140625 0.546875q0.078125 -0.171875 0.140625 -0.296875q0.078125 -0.140625 0.15625 -0.234375q0.09375 -0.09375 0.1875 -0.140625q0.109375 -0.046875 0.25 -0.046875q0.609375 0 0.609375 0.953125l0 2.375l-0.515625 0zm3.4252472 0l0 -0.4375q-0.26560974 0.265625 -0.54685974 0.390625q-0.28125 0.109375 -0.578125 0.109375q-0.28125 0 -0.484375 -0.0625q-0.1875 -0.078125 -0.328125 -0.203125q-0.125 -0.125 -0.1875 -0.296875q-0.046875 -0.171875 -0.046875 -0.375q0 -0.484375 0.359375 -0.765625q0.359375 -0.28125 1.078125 -0.28125l0.67185974 0l0 -0.28125q0 -0.296875 -0.18748474 -0.46875q-0.171875 -0.171875 -0.5625 -0.171875q-0.265625 0 -0.546875 0.0625q-0.265625 0.0625 -0.546875 0.171875l0 -0.5q0.109375 -0.046875 0.234375 -0.078125q0.140625 -0.046875 0.28125 -0.0625q0.15625 -0.03125 0.3125 -0.046875q0.15625 -0.03125 0.3125 -0.03125q0.296875 0 0.53125 0.078125q0.24998474 0.0625 0.40623474 0.203125q0.171875 0.125 0.25 0.328125q0.09375 0.203125 0.09375 0.46875l0 2.25l-0.515625 0zm-0.0625 -1.484375l-0.70310974 0q-0.21875 0 -0.375 0.046875q-0.15625 0.03125 -0.25 0.109375q-0.09375 0.078125 -0.140625 0.1875q-0.046875 0.109375 -0.046875 0.25q0 0.09375 0.03125 0.1875q0.03125 0.078125 0.09375 0.15625q0.0625 0.0625 0.15625 0.109375q0.109375 0.03125 0.265625 0.03125q0.1875 0 0.4375 -0.125q0.265625 -0.125 0.53123474 -0.375l0 -0.578125zm4.5815125 1.484375l-0.765625 0l-0.875 -1.25l-0.875 1.25l-0.71875 0l1.25 -1.640625l-1.203125 -1.625l0.734375 0l0.859375 1.25l0.828125 -1.25l0.703125 0l-1.21875 1.640625l1.28125 1.625z" fill-rule="nonzero"/></g></svg>