<svg version="1.1" viewBox="0.0 0.0 635.3937007874016 100.0" fill="none" stroke="none" stroke-linecap="square" stroke-miterlimit="10" xmlns:xlink="http://www.w3.org/1999/xlink" xmlns="http://www.w3.org/2000/svg"><clipPath id="p.0"><path d="m0 0l635.3937 0l0 100.0l-635.3937 0l0 -100.0z" clip-rule="nonzero"/></clipPath><g clip-path="url(#p.0)"><path fill="#ffffff" d="m0 0l635.3937 0l0 100.0l-635.3937 0z" fill-rule="evenodd"/><path fill="#000000" fill-opacity="0.0" d="m21.462349 30.986877l94.48819 0l0 30.204723l-94.48819 0z" fill-rule="evenodd"/><path stroke="#000000" stroke-width="1.0" stroke-linejoin="round" stroke-linecap="butt" d="m21.462349 30.986877l94.48819 0l0 30.204723l-94.48819 0z" fill-rule="evenodd"/><path fill="#000000" d="m33.186348 46.415485q0 -2.359375 0.484375 -3.796875q0.484375 -1.453125 1.4375 -2.234375q0.96875 -0.78125 2.421875 -0.78125q1.078125 0 1.890625 0.4375q0.8125 0.421875 1.328125 1.25q0.53125 0.8125 0.828125 1.984375q0.3125 1.15625 0.3125 3.140625q0 2.359375 -0.484375 3.8125q-0.484375 1.4375 -1.453125 2.234375q-0.953125 0.78125 -2.421875 0.78125q-1.921875 0 -3.03125 -1.390625q-1.3125 -1.671875 -1.3125 -5.4375zm1.671875 0q0 3.296875 0.765625 4.390625q0.78125 1.078125 1.90625 1.078125q1.140625 0 1.90625 -1.09375q0.765625 -1.09375 0.765625 -4.375q0 -3.296875 -0.765625 -4.375q-0.765625 -1.078125 -1.921875 -1.078125q-1.125 0 -1.796875 0.953125q-0.859375 1.21875 -0.859375 4.5zm9.578842 6.59375l0 -1.875l1.875 0l0 1.875q0 1.03125 -0.375 1.65625q-0.359375 0.640625 -1.15625 0.984375l-0.453125 -0.703125q0.515625 -0.21875 0.765625 -0.671875q0.25 -0.4375 0.28125 -1.265625l-0.9375 0zm15.663483 0l-1.640625 0l0 -10.453125q-0.59375 0.5625 -1.5625 1.140625q-0.953125 0.5625 -1.71875 0.84375l0 -1.59375q1.375 -0.640625 2.40625 -1.5625q1.03125 -0.921875 1.453125 -1.78125l1.0625 0l0 13.40625zm5.078842 0l0 -1.875l1.875 0l0 1.875q0 1.03125 -0.375 1.65625q-0.359375 0.640625 -1.15625 0.984375l-0.453125 -0.703125q0.515625 -0.21875 0.765625 -0.671875q0.25 -0.4375 0.28125 -1.265625l-0.9375 0zm9.491608 -3.5l1.71875 -0.140625q0.1875 1.25 0.875 1.890625q0.703125 0.625 1.6875 0.625q1.1875 0 2.0 -0.890625q0.828125 -0.890625 0.828125 -2.359375q0 -1.40625 -0.796875 -2.21875q-0.78125 -0.8125 -2.0625 -0.8125q-0.78125 0 -1.421875 0.359375q-0.640625 0.359375 -1.0 0.9375l-1.546875 -0.203125l1.296875 -6.859375l6.640625 0l0 1.5625l-5.328125 0l-0.71875 3.59375q1.203125 -0.84375 2.515625 -0.84375q1.75 0 2.953125 1.21875q1.203125 1.203125 1.203125 3.109375q0 1.8125 -1.046875 3.140625q-1.296875 1.625 -3.515625 1.625q-1.8125 0 -2.96875 -1.015625q-1.15625 -1.03125 -1.3125 -2.71875zm11.250717 3.5l0 -1.875l1.875 0l0 1.875q0 1.03125 -0.375 1.65625q-0.359375 0.640625 -1.15625 0.984375l-0.453125 -0.703125q0.515625 -0.21875 0.765625 -0.671875q0.25 -0.4375 0.28125 -1.265625l-0.9375 0zm12.007233 -7.234375q-1.015625 -0.375 -1.515625 -1.0625q-0.484375 -0.703125 -0.484375 -1.671875q0 -1.453125 1.046875 -2.4375q1.046875 -1.0 2.78125 -1.0q1.75 0 2.8125 1.015625q1.078125 1.015625 1.078125 2.46875q0 0.9375 -0.5 1.625q-0.484375 0.6875 -1.46875 1.0625q1.21875 0.390625 1.859375 1.28125q0.65625 0.890625 0.65625 2.140625q0 1.703125 -1.21875 2.875q-1.21875 1.171875 -3.1875 1.171875q-1.984375 0 -3.203125 -1.171875q-1.203125 -1.171875 -1.203125 -2.921875q0 -1.3125 0.65625 -2.1875q0.671875 -0.875 1.890625 -1.1875zm-0.328125 -2.78125q0 0.9375 0.609375 1.546875q0.609375 0.59375 1.59375 0.59375q0.9375 0 1.546875 -0.59375q0.609375 -0.59375 0.609375 -1.453125q0 -0.90625 -0.625 -1.515625q-0.625 -0.625 -1.5625 -0.625q-0.9375 0 -1.5625 0.609375q-0.609375 0.59375 -0.609375 1.4375zm-0.53125 6.15625q0 0.703125 0.328125 1.359375q0.34375 0.65625 1.0 1.015625q0.65625 0.359375 1.40625 0.359375q1.171875 0 1.9375 -0.75q0.765625 -0.75 0.765625 -1.921875q0 -1.1875 -0.796875 -1.953125q-0.78125 -0.78125 -1.953125 -0.78125q-1.15625 0 -1.921875 0.765625q-0.765625 0.765625 -0.765625 1.90625z" fill-rule="nonzero"/><path fill="#000000" fill-opacity="0.0" d="m115.95015 30.986877l73.41731 0l0 30.204723l-73.41731 0z" fill-rule="evenodd"/><path stroke="#000000" stroke-width="1.0" stroke-linejoin="round" stroke-linecap="butt" d="m115.95015 30.986877l73.41731 0l0 30.204723l-73.41731 0z" fill-rule="evenodd"/><path fill="#ff0000" d="m133.6772 53.009235l-1.640625 0l0 -10.453125q-0.59375 0.5625 -1.5625 1.140625q-0.953125 0.5625 -1.71875 0.84375l0 -1.59375q1.375 -0.640625 2.40625 -1.5625q1.03125 -0.921875 1.453125 -1.78125l1.0625 0l0 13.40625z" fill-rule="nonzero"/><path fill="#000000" d="m140.39667 45.77486q-1.015625 -0.375 -1.515625 -1.0625q-0.484375 -0.703125 -0.484375 -1.671875q0 -1.453125 1.046875 -2.4375q1.046875 -1.0 2.78125 -1.0q1.75 0 2.8125 1.015625q1.078125 1.015625 1.078125 2.46875q0 0.9375 -0.5 1.625q-0.484375 0.6875 -1.46875 1.0625q1.21875 0.390625 1.859375 1.28125q0.65625 0.890625 0.65625 2.140625q0 1.703125 -1.21875 2.875q-1.21875 1.171875 -3.1875 1.171875q-1.984375 0 -3.203125 -1.171875q-1.203125 -1.171875 -1.203125 -2.921875q0 -1.3125 0.65625 -2.1875q0.671875 -0.875 1.890625 -1.1875zm-0.328125 -2.78125q0 0.9375 0.609375 1.546875q0.609375 0.59375 1.59375 0.59375q0.9375 0 1.546875 -0.59375q0.609375 -0.59375 0.609375 -1.453125q0 -0.90625 -0.625 -1.515625q-0.625 -0.625 -1.5625 -0.625q-0.9375 0 -1.5625 0.609375q-0.609375 0.59375 -0.609375 1.4375zm-0.53125 6.15625q0 0.703125 0.328125 1.359375q0.34375 0.65625 1.0 1.015625q0.65625 0.359375 1.40625 0.359375q1.171875 0 1.9375 -0.75q0.765625 -0.75 0.765625 -1.921875q0 -1.1875 -0.796875 -1.953125q-0.78125 -0.78125 -1.953125 -0.78125q-1.15625 0 -1.921875 0.765625q-0.765625 0.765625 -0.765625 1.90625zm9.594467 3.859375l0 -1.875l1.875 0l0 1.875q0 1.03125 -0.375 1.65625q-0.359375 0.640625 -1.15625 0.984375l-0.453125 -0.703125q0.515625 -0.21875 0.765625 -0.671875q0.25 -0.4375 0.28125 -1.265625l-0.9375 0z" fill-rule="nonzero"/><path fill="#ff0000" d="m164.79524 53.009235l-1.640625 0l0 -10.453125q-0.59375 0.5625 -1.5625 1.140625q-0.953125 0.5625 -1.71875 0.84375l0 -1.59375q1.375 -0.640625 2.40625 -1.5625q1.03125 -0.921875 1.453125 -1.78125l1.0625 0l0 13.40625z" fill-rule="nonzero"/><path fill="#000000" d="m169.23346 49.915485l1.578125 -0.140625q0.203125 1.109375 0.765625 1.609375q0.5625 0.5 1.453125 0.5q0.75 0 1.3125 -0.34375q0.578125 -0.34375 0.9375 -0.921875q0.375 -0.578125 0.609375 -1.5625q0.25 -0.984375 0.25 -2.0q0 -0.109375 0 -0.328125q-0.5 0.78125 -1.359375 1.265625q-0.84375 0.484375 -1.828125 0.484375q-1.671875 0 -2.8125 -1.203125q-1.140625 -1.203125 -1.140625 -3.171875q0 -2.03125 1.1875 -3.265625q1.203125 -1.234375 3.0 -1.234375q1.3125 0 2.390625 0.703125q1.078125 0.703125 1.640625 2.0q0.5625 1.296875 0.5625 3.75q0 2.5625 -0.5625 4.078125q-0.5625 1.515625 -1.65625 2.3125q-1.09375 0.796875 -2.578125 0.796875q-1.5625 0 -2.5625 -0.875q-0.984375 -0.875 -1.1875 -2.453125zm6.71875 -5.890625q0 -1.40625 -0.75 -2.234375q-0.75 -0.828125 -1.8125 -0.828125q-1.09375 0 -1.90625 0.890625q-0.8125 0.890625 -0.8125 2.3125q0 1.28125 0.765625 2.078125q0.78125 0.796875 1.90625 0.796875q1.140625 0 1.875 -0.796875q0.734375 -0.796875 0.734375 -2.21875z" fill-rule="nonzero"/><path fill="#000000" fill-opacity="0.0" d="m189.3805 30.986877l51.685043 0l0 30.204723l-51.685043 0z" fill-rule="evenodd"/><path stroke="#000000" stroke-width="1.0" stroke-linejoin="round" stroke-linecap="butt" d="m189.3805 30.986877l51.685043 0l0 30.204723l-51.685043 0z" fill-rule="evenodd"/><path fill="#000000" d="m206.61256 53.009235l-1.640625 0l0 -10.453125q-0.59375 0.5625 -1.5625 1.140625q-0.953125 0.5625 -1.71875 0.84375l0 -1.59375q1.375 -0.640625 2.40625 -1.5625q1.03125 -0.921875 1.453125 -1.78125l1.0625 0l0 13.40625z" fill-rule="nonzero"/><path fill="#ff0000" d="m219.42578 51.43111l0 1.578125l-8.828125 0q-0.015625 -0.59375 0.1875 -1.140625q0.34375 -0.90625 1.078125 -1.78125q0.75 -0.875 2.15625 -2.015625q2.171875 -1.78125 2.9375 -2.828125q0.765625 -1.046875 0.765625 -1.96875q0 -0.984375 -0.703125 -1.640625q-0.6875 -0.671875 -1.8125 -0.671875q-1.1875 0 -1.90625 0.71875q-0.703125 0.703125 -0.703125 1.953125l-1.6875 -0.171875q0.171875 -1.890625 1.296875 -2.875q1.140625 -0.984375 3.03125 -0.984375q1.921875 0 3.046875 1.0625q1.125 1.0625 1.125 2.640625q0 0.796875 -0.328125 1.578125q-0.328125 0.78125 -1.09375 1.640625q-0.75 0.84375 -2.53125 2.34375q-1.46875 1.234375 -1.890625 1.6875q-0.421875 0.4375 -0.6875 0.875l6.546875 0z" fill-rule="nonzero"/><path fill="#000000" d="m221.19212 49.477985l1.640625 -0.21875q0.28125 1.40625 0.953125 2.015625q0.6875 0.609375 1.65625 0.609375q1.15625 0 1.953125 -0.796875q0.796875 -0.796875 0.796875 -1.984375q0 -1.125 -0.734375 -1.859375q-0.734375 -0.734375 -1.875 -0.734375q-0.46875 0 -1.15625 0.171875l0.1875 -1.4375q0.15625 0.015625 0.265625 0.015625q1.046875 0 1.875 -0.546875q0.84375 -0.546875 0.84375 -1.671875q0 -0.90625 -0.609375 -1.5q-0.609375 -0.59375 -1.578125 -0.59375q-0.953125 0 -1.59375 0.609375q-0.640625 0.59375 -0.8125 1.796875l-1.640625 -0.296875q0.296875 -1.640625 1.359375 -2.546875q1.0625 -0.90625 2.65625 -0.90625q1.09375 0 2.0 0.46875q0.921875 0.46875 1.40625 1.28125q0.5 0.8125 0.5 1.71875q0 0.859375 -0.46875 1.578125q-0.46875 0.703125 -1.375 1.125q1.1875 0.28125 1.84375 1.140625q0.65625 0.859375 0.65625 2.15625q0 1.734375 -1.28125 2.953125q-1.265625 1.21875 -3.21875 1.21875q-1.765625 0 -2.921875 -1.046875q-1.15625 -1.046875 -1.328125 -2.71875z" fill-rule="nonzero"/><path fill="#000000" fill-opacity="0.0" d="m241.03952 30.986877l41.19684 0l0 30.204723l-41.19684 0z" fill-rule="evenodd"/><path stroke="#000000" stroke-width="1.0" stroke-linejoin="round" stroke-linecap="butt" d="m241.03952 30.986877l41.19684 0l0 30.204723l-41.19684 0z" fill-rule="evenodd"/><path fill="#000000" fill-opacity="0.0" d="m282.2494 30.986877l47.62204 0l0 30.204723l-47.62204 0z" fill-rule="evenodd"/><path stroke="#000000" stroke-width="1.0" stroke-linejoin="round" stroke-linecap="butt" d="m282.2494 30.986877l47.62204 0l0 30.204723l-47.62204 0z" fill-rule="evenodd"/><path fill="#000000" fill-opacity="0.0" d="m329.87125 30.986877l47.62204 0l0 30.204723l-47.62204 0z" fill-rule="evenodd"/><path stroke="#000000" stroke-width="1.0" stroke-linejoin="round" stroke-linecap="butt" d="m329.87125 30.986877l47.62204 0l0 30.204723l-47.62204 0z" fill-rule="evenodd"/><path fill="#000000" fill-opacity="0.0" d="m377.4927 30.986877l59.338593 0l0 30.204723l-59.338593 0z" fill-rule="evenodd"/><path stroke="#000000" stroke-width="1.0" stroke-linejoin="round" stroke-linecap="butt" d="m377.4927 30.986877l59.338593 0l0 30.204723l-59.338593 0z" fill-rule="evenodd"/><path fill="#000000" fill-opacity="0.0" d="m436.8313 30.986877l59.338562 0l0 30.204723l-59.338562 0z" fill-rule="evenodd"/><path stroke="#000000" stroke-width="1.0" stroke-linejoin="round" stroke-linecap="butt" d="m436.8313 30.986877l59.338562 0l0 30.204723l-59.338562 0z" fill-rule="evenodd"/><path fill="#ff0000" d="m457.0155 41.39986l0 -1.578125l8.640625 0l0 1.28125q-1.28125 1.359375 -2.53125 3.609375q-1.25 2.25 -1.9375 4.625q-0.484375 1.671875 -0.625 3.671875l-1.6875 0q0.03125 -1.578125 0.625 -3.8125q0.59375 -2.234375 1.6875 -4.296875q1.109375 -2.078125 2.359375 -3.5l-6.53125 0z" fill-rule="nonzero"/><path fill="#000000" d="m473.4537 53.009235l-1.640625 0l0 -10.453125q-0.59375 0.5625 -1.5625 1.140625q-0.953125 0.5625 -1.71875 0.84375l0 -1.59375q1.375 -0.640625 2.40625 -1.5625q1.03125 -0.921875 1.453125 -1.78125l1.0625 0l0 13.40625z" fill-rule="nonzero"/><path fill="#000000" fill-opacity="0.0" d="m496.16986 30.986877l59.338623 0l0 30.204723l-59.338623 0z" fill-rule="evenodd"/><path stroke="#000000" stroke-width="1.0" stroke-linejoin="round" stroke-linecap="butt" d="m496.16986 30.986877l59.338623 0l0 30.204723l-59.338623 0z" fill-rule="evenodd"/><path fill="#000000" fill-opacity="0.0" d="m555.5085 30.986877l59.338562 0l0 30.204723l-59.338562 0z" fill-rule="evenodd"/><path stroke="#000000" stroke-width="1.0" stroke-linejoin="round" stroke-linecap="butt" d="m555.5085 30.986877l59.338562 0l0 30.204723l-59.338562 0z" fill-rule="evenodd"/><path fill="#000000" fill-opacity="0.0" d="m21.462675 52.160107l94.48819 0l0 30.70866l-94.48819 0z" fill-rule="evenodd"/><path fill="#999999" d="m66.76909 67.9326q0 -0.84375 0.25 -1.71875q0.265625 -0.875 0.5625 -1.390625q0.3125 -0.53125 0.640625 -0.8281212q0.34375 -0.296875 0.65625 -0.4375q0.328125 -0.140625 0.71875 -0.140625q0.765625 0 1.28125 0.578125q0.515625 0.5624962 0.515625 1.6406212q0 1.09375 -0.359375 2.1875q-0.421875 1.28125 -1.171875 1.921875q-0.578125 0.484375 -1.296875 0.484375q-0.765625 0 -1.28125 -0.578125q-0.515625 -0.59375 -0.515625 -1.71875zm0.796875 0.203125q0 0.625 0.203125 0.96875q0.28125 0.46875 0.828125 0.46875q0.484375 0 0.875 -0.421875q0.5625 -0.609375 0.84375 -1.78125q0.28125 -1.1875 0.28125 -1.9375q0 -0.71875 -0.28125 -1.03125q-0.265625 -0.328125 -0.71875 -0.328125q-0.328125 0 -0.609375 0.171875q-0.28125 0.171875 -0.546875 0.578125q-0.359375 0.578125 -0.640625 1.734375q-0.234375 0.984375 -0.234375 1.578125z" fill-rule="nonzero"/><path fill="#000000" fill-opacity="0.0" d="m115.949974 52.160107l73.41732 0l0 30.70866l-73.41732 0z" fill-rule="evenodd"/><path fill="#999999" d="m152.31471 70.1201l1.046875 -5.046875q-0.671875 0.546875 -1.921875 0.859375l0.15625 -0.734375q0.625 -0.25 1.21875 -0.640625q0.59375 -0.40625 0.890625 -0.7031212q0.1875 -0.171875 0.359375 -0.4375l0.46875 0l-1.390625 6.703121l-0.828125 0z" fill-rule="nonzero"/><path fill="#000000" fill-opacity="0.0" d="m189.36789 52.160107l51.685043 0l0 30.70866l-51.685043 0z" fill-rule="evenodd"/><path fill="#999999" d="m213.16335 70.1201q0.125 -0.59375 0.34375 -1.0q0.234375 -0.40625 0.609375 -0.765625q0.375 -0.359375 1.4375 -1.21875q0.640625 -0.515625 0.890625 -0.75q0.328125 -0.359375 0.484375 -0.703125q0.109375 -0.234375 0.109375 -0.5q0 -0.46875 -0.328125 -0.78125q-0.328125 -0.328125 -0.796875 -0.328125q-0.46875 0 -0.828125 0.328125q-0.34375 0.328125 -0.484375 1.046875l-0.8125 -0.125q0.109375 -0.890625 0.6875 -1.3906212q0.578125 -0.515625 1.421875 -0.515625q0.578125 0 1.03125 0.234375q0.46875 0.234375 0.703125 0.6718712q0.234375 0.421875 0.234375 0.875q0 0.671875 -0.484375 1.28125q-0.28125 0.390625 -1.703125 1.515625q-0.609375 0.46875 -0.921875 0.78125q-0.296875 0.3125 -0.4375 0.59375l2.984375 0l-0.15625 0.75l-3.984375 0z" fill-rule="nonzero"/><path fill="#000000" fill-opacity="0.0" d="m241.05275 52.160107l41.196854 0l0 30.70866l-41.196854 0z" fill-rule="evenodd"/><path fill="#999999" d="m259.57288 68.3701l0.796875 -0.09375q0.09375 0.703125 0.40625 1.0q0.3125 0.296875 0.8125 0.296875q0.609375 0 1.046875 -0.4375q0.453125 -0.4375 0.453125 -1.0q0 -0.484375 -0.34375 -0.796875q-0.328125 -0.328125 -0.875 -0.328125q-0.078125 0 -0.265625 0.015625l0.140625 -0.6875q0.109375 0.015625 0.21875 0.015625q0.703125 0 1.078125 -0.34375q0.390625 -0.34375 0.390625 -0.84375q0 -0.46875 -0.3125 -0.78125q-0.3125 -0.3125 -0.765625 -0.3125q-0.4375 0 -0.796875 0.328125q-0.34375 0.3125 -0.453125 0.90625l-0.796875 -0.171875q0.1875 -0.8125 0.75 -1.2656212q0.578125 -0.453125 1.359375 -0.453125q0.828125 0 1.328125 0.5q0.515625 0.4843712 0.515625 1.2187462q0 0.53125 -0.28125 0.921875q-0.28125 0.390625 -0.828125 0.65625q0.390625 0.234375 0.578125 0.5625q0.203125 0.328125 0.203125 0.75q0 0.890625 -0.671875 1.546875q-0.671875 0.65625 -1.609375 0.65625q-0.90625 0 -1.46875 -0.5q-0.546875 -0.515625 -0.609375 -1.359375z" fill-rule="nonzero"/><path fill="#000000" fill-opacity="0.0" d="m282.24942 52.160107l47.62204 0l0 30.70866l-47.62204 0z" fill-rule="evenodd"/><path fill="#999999" d="m306.24777 70.1201l0.359375 -1.703125l-2.71875 0l0.171875 -0.8125l3.75 -4.156246l0.671875 0l-0.890625 4.234371l0.9375 0l-0.15625 0.734375l-0.9375 0l-0.359375 1.703125l-0.828125 0zm0.515625 -2.4375l0.578125 -2.78125l-2.484375 2.78125l1.90625 0z" fill-rule="nonzero"/><path fill="#000000" fill-opacity="0.0" d="m329.8711 52.160107l47.62204 0l0 30.70866l-47.62204 0z" fill-rule="evenodd"/><path fill="#999999" d="m351.74445 68.21385l0.828125 -0.078125q0 0.171875 0 0.203125q0 0.3125 0.140625 0.625q0.15625 0.296875 0.421875 0.453125q0.265625 0.15625 0.546875 0.15625q0.390625 0 0.78125 -0.265625q0.40625 -0.265625 0.640625 -0.765625q0.25 -0.5 0.25 -1.0q0 -0.5625 -0.328125 -0.890625q-0.328125 -0.34375 -0.875 -0.34375q-0.359375 0 -0.6875 0.171875q-0.3125 0.171875 -0.578125 0.515625l-0.71875 -0.046875l1.0 -3.4218712l3.265625 0l-0.171875 0.7656212l-2.53125 0l-0.5 1.703125q0.28125 -0.21875 0.578125 -0.3125q0.296875 -0.109375 0.609375 -0.109375q0.765625 0 1.25 0.515625q0.5 0.5 0.5 1.375q0 0.78125 -0.34375 1.4375q-0.328125 0.640625 -0.921875 0.984375q-0.578125 0.34375 -1.265625 0.34375q-0.578125 0 -1.015625 -0.25q-0.4375 -0.265625 -0.671875 -0.71875q-0.21875 -0.453125 -0.21875 -0.90625q0 -0.046875 0.015625 -0.140625z" fill-rule="nonzero"/><path fill="#000000" fill-opacity="0.0" d="m378.81497 52.160107l59.338562 0l0 30.70866l-59.338562 0z" fill-rule="evenodd"/><path fill="#999999" d="m407.76532 66.2451q0.34375 -0.28125 0.6875 -0.421875q0.34375 -0.15625 0.6875 -0.15625q0.765625 0 1.25 0.53125q0.5 0.515625 0.5 1.390625q0 1.140625 -0.734375 1.953125q-0.640625 0.6875 -1.546875 0.6875q-0.828125 0 -1.390625 -0.609375q-0.546875 -0.609375 -0.546875 -1.734375q0 -1.0 0.359375 -2.078125q0.265625 -0.828125 0.671875 -1.359375q0.40625 -0.5312462 0.859375 -0.7812462q0.453125 -0.25 1.015625 -0.25q0.6875 0 1.109375 0.421875q0.4375 0.4218712 0.5 1.2187462l-0.765625 0.078125q-0.0625 -0.546875 -0.3125 -0.78125q-0.234375 -0.25 -0.59375 -0.25q-0.359375 0 -0.734375 0.296875q-0.375 0.28125 -0.640625 0.84375q-0.265625 0.5625 -0.375 1.0zm-0.28125 2.0q0 0.5625 0.34375 0.953125q0.359375 0.375 0.796875 0.375q0.3125 0 0.65625 -0.234375q0.34375 -0.234375 0.578125 -0.703125q0.25 -0.484375 0.25 -0.953125q0 -0.609375 -0.34375 -0.96875q-0.328125 -0.375 -0.796875 -0.375q-0.546875 0 -1.015625 0.53125q-0.46875 0.53125 -0.46875 1.375z" fill-rule="nonzero"/><path fill="#000000" fill-opacity="0.0" d="m438.15353 52.160107l58.015747 0l0 30.70866l-58.015747 0z" fill-rule="evenodd"/><path fill="#999999" d="m465.92685 70.1201q0.109375 -0.671875 0.453125 -1.625q0.421875 -1.140625 1.109375 -2.265625q0.6875 -1.125 1.53125 -1.9375l-3.328125 0l0.15625 -0.7656212l4.265625 0l-0.15625 0.7656212q-1.078125 0.953125 -1.890625 2.453125q-0.9375 1.734375 -1.28125 3.375l-0.859375 0z" fill-rule="nonzero"/><path fill="#000000" fill-opacity="0.0" d="m496.16928 52.160107l59.338593 0l0 30.70866l-59.338593 0z" fill-rule="evenodd"/><path fill="#999999" d="m525.354 66.44823q-0.375 -0.203125 -0.5625 -0.515625q-0.1875 -0.328125 -0.1875 -0.703125q0 -0.609375 0.4375 -1.109375q0.578125 -0.7031212 1.578125 -0.7031212q0.875 0 1.375 0.46875q0.515625 0.4687462 0.515625 1.1562462q0 0.484375 -0.28125 0.875q-0.265625 0.390625 -0.84375 0.625q0.390625 0.25 0.5625 0.53125q0.234375 0.375 0.234375 0.859375q0 0.90625 -0.640625 1.609375q-0.640625 0.703125 -1.6875 0.703125q-0.84375 0 -1.375 -0.515625q-0.53125 -0.53125 -0.53125 -1.3125q0 -0.734375 0.375 -1.25q0.375 -0.53125 1.03125 -0.71875zm0.0625 -1.171875q0 0.421875 0.265625 0.6875q0.28125 0.25 0.765625 0.25q0.5625 0 0.90625 -0.34375q0.359375 -0.34375 0.359375 -0.84375q0 -0.421875 -0.28125 -0.6875q-0.265625 -0.265625 -0.75 -0.265625q-0.359375 0 -0.671875 0.171875q-0.296875 0.171875 -0.453125 0.46875q-0.140625 0.28125 -0.140625 0.5625zm-0.640625 3.21875q0 0.265625 0.125 0.53125q0.140625 0.25 0.40625 0.40625q0.28125 0.140625 0.625 0.140625q0.671875 0 1.09375 -0.625q0.328125 -0.484375 0.328125 -1.0625q0 -0.46875 -0.3125 -0.75q-0.296875 -0.296875 -0.796875 -0.296875q-0.609375 0 -1.046875 0.453125q-0.421875 0.453125 -0.421875 1.203125z" fill-rule="nonzero"/><path fill="#000000" fill-opacity="0.0" d="m555.5079 52.160107l58.015747 0l0 30.70866l-58.015747 0z" fill-rule="evenodd"/><path fill="#999999" d="m582.5468 68.58885l0.78125 -0.078125q0.078125 0.5625 0.3125 0.796875q0.25 0.234375 0.578125 0.234375q0.46875 0 0.875 -0.40625q0.59375 -0.59375 0.875 -1.71875q-0.40625 0.296875 -0.734375 0.4375q-0.3125 0.125 -0.65625 0.125q-0.609375 0 -1.09375 -0.40625q-0.640625 -0.53125 -0.640625 -1.53125q0 -1.125 0.75 -1.9375q0.625 -0.6874962 1.546875 -0.6874962q0.828125 0 1.375 0.6093712q0.546875 0.609375 0.546875 1.734375q0 1.09375 -0.359375 2.15625q-0.4375 1.234375 -1.171875 1.828125q-0.609375 0.484375 -1.359375 0.484375q-0.6875 0 -1.125 -0.421875q-0.4375 -0.4375 -0.5 -1.21875zm1.09375 -2.640625q0 0.625 0.328125 1.0q0.34375 0.375 0.8125 0.375q0.34375 0 0.671875 -0.234375q0.34375 -0.234375 0.578125 -0.6875q0.25 -0.46875 0.25 -0.953125q0 -0.390625 -0.171875 -0.71875q-0.15625 -0.328125 -0.4375 -0.484375q-0.265625 -0.171875 -0.546875 -0.171875q-0.28125 0 -0.546875 0.15625q-0.25 0.140625 -0.484375 0.421875q-0.21875 0.28125 -0.34375 0.65625q-0.109375 0.359375 -0.109375 0.640625z" fill-rule="nonzero"/></g></svg>